<svg xmlns="http://www.w3.org/2000/svg" width="500" height="500" viewBox="0 0 500 500">
<g>
<path d="M 354.93 353.75 C352.38,359.40 351.82,360.00 349.11,360.00 C347.47,360.00 345.91,359.66 345.65,359.24 C345.39,358.82 346.26,356.18 347.60,353.38 L 350.02 348.28 L 347.59 341.89 C342.98,329.80 340.00,325.71 340.00,331.50 C340.00,333.51 339.50,334.00 337.48,334.00 C334.39,334.00 332.76,337.57 333.13,343.52 C333.44,348.63 332.69,349.85 329.58,349.26 C327.17,348.80 327.11,348.57 326.81,337.89 L 326.50 327.00 L 329.67 327.00 C331.41,327.00 333.00,327.51 333.21,328.14 C333.50,328.99 334.17,328.98 335.82,328.09 C337.05,327.44 340.57,327.04 343.64,327.20 L 349.23 327.50 L 351.46 333.48 C353.42,338.75 353.81,339.22 354.74,337.48 C355.32,336.39 356.31,333.59 356.94,331.25 C358.03,327.16 358.22,327.00 362.04,327.00 C364.22,327.00 366.00,327.28 366.00,327.63 C366.00,328.31 359.53,343.57 354.93,353.75 ZM 172.80 353.35 C172.52,359.10 172.33,359.52 169.96,359.80 C168.57,359.96 167.10,359.77 166.71,359.38 C166.32,358.99 166.00,351.59 166.00,342.93 L 166.00 327.19 L 175.46 327.14 C184.51,327.08 185.01,327.19 186.98,329.70 C189.66,333.11 190.38,336.17 189.54,340.62 C188.25,347.52 181.67,351.48 176.09,348.70 L 173.09 347.20 ZM 200.21 354.50 C199.77,359.79 199.64,360.00 196.88,360.00 C194.01,360.00 193.75,359.54 193.75,354.50 C193.75,353.67 193.81,347.20 193.88,340.10 L 194.00 327.21 L 202.16 327.16 C211.36,327.10 213.33,327.81 215.49,331.98 C220.00,340.71 212.20,352.69 204.33,349.10 C202.90,348.45 201.50,348.17 201.20,348.46 C200.91,348.76 200.46,351.48 200.21,354.50 ZM 143.05 346.38 C142.43,347.99 141.15,348.90 139.03,349.21 C137.31,349.46 135.72,349.36 135.49,348.98 C135.09,348.33 136.24,344.92 142.68,327.70 L 145.22 320.90 L 149.27 321.20 C153.28,321.50 153.35,321.57 155.70,328.00 C159.40,338.13 163.00,348.32 163.00,348.67 C163.00,348.85 161.41,349.00 159.48,349.00 C156.64,349.00 155.77,348.51 155.00,346.50 C154.16,344.29 153.47,344.00 149.00,344.00 C144.60,344.00 143.83,344.31 143.05,346.38 ZM 315.28 348.64 C310.71,350.57 308.95,350.36 304.23,347.29 C299.12,343.98 298.89,343.43 299.93,336.85 C301.06,329.76 304.20,327.00 311.16,327.00 C315.59,327.00 316.62,327.42 319.73,330.53 C322.96,333.76 323.21,334.43 322.75,338.57 C322.17,343.68 319.96,346.66 315.28,348.64 ZM 234.18 349.11 C225.25,352.54 217.28,344.09 219.98,334.06 C221.30,329.16 224.83,327.00 231.53,327.00 C235.31,327.00 236.69,327.53 239.08,329.92 C241.55,332.39 242.00,333.64 242.00,337.97 C242.00,342.27 241.56,343.51 239.25,345.66 C237.74,347.07 235.46,348.62 234.18,349.11 ZM 265.00 341.54 L 265.00 349.00 L 258.00 349.00 L 258.00 327.17 L 266.61 327.15 C274.37,327.13 275.45,327.36 277.61,329.52 C279.76,331.67 280.00,332.78 280.00,340.45 L 280.00 349.00 L 273.00 349.00 L 273.00 341.47 C273.00,334.57 272.81,333.86 270.75,333.09 C266.31,331.41 265.00,333.33 265.00,341.54 ZM 297.00 346.04 C297.00,348.76 296.71,349.00 293.50,349.00 C288.09,349.00 286.00,346.24 286.00,339.11 C286.00,334.79 285.60,333.06 284.50,332.64 C283.67,332.32 283.00,330.97 283.00,329.64 C283.00,328.30 283.67,326.95 284.50,326.64 C285.33,326.32 286.00,325.01 286.00,323.73 C286.00,321.66 286.38,321.45 289.50,321.81 C292.41,322.15 293.00,322.62 293.00,324.61 C293.00,326.33 293.56,327.00 295.00,327.00 C296.49,327.00 297.00,327.67 297.00,329.59 C297.00,331.35 296.35,332.36 295.00,332.71 C293.44,333.12 293.00,334.07 293.00,337.08 C293.00,339.91 293.53,341.21 295.00,342.00 C296.31,342.70 297.00,344.09 297.00,346.04 ZM 253.00 338.06 L 253.00 349.00 L 246.00 349.00 L 246.00 338.11 C246.00,327.27 246.01,327.21 248.55,326.58 C249.95,326.23 251.52,326.20 252.05,326.53 C252.57,326.85 253.00,332.04 253.00,338.06 ZM 202.00 342.00 C204.50,344.50 204.85,344.49 207.69,341.83 C211.80,337.96 210.20,333.00 204.84,333.00 C200.16,333.00 198.45,338.45 202.00,342.00 ZM 174.36 341.42 C176.44,344.60 177.16,344.62 180.67,341.60 C183.13,339.49 183.34,338.87 182.46,336.35 C181.61,333.96 180.90,333.50 178.00,333.50 C175.16,333.50 174.38,333.97 173.61,336.17 C172.90,338.19 173.08,339.47 174.36,341.42 ZM 308.57 342.43 C310.63,344.49 311.59,344.41 314.00,342.00 C317.59,338.41 315.83,333.00 311.07,333.00 C306.92,333.00 305.29,339.15 308.57,342.43 ZM 228.07 341.10 C230.63,344.69 231.36,344.71 233.82,341.25 C236.23,337.87 236.29,336.98 234.27,334.75 C231.52,331.71 226.00,333.07 226.00,336.80 C226.00,337.56 226.93,339.50 228.07,341.10 ZM 252.68 322.37 C250.75,325.28 248.74,325.47 246.48,322.98 C245.03,321.37 244.83,320.49 245.64,319.19 C247.10,316.86 250.41,316.56 252.42,318.56 C253.88,320.03 253.92,320.50 252.68,322.37 ZM 146.37 336.75 C145.76,339.01 146.57,339.49 149.27,338.45 C151.09,337.75 150.32,333.00 148.38,333.00 C147.62,333.00 146.99,333.34 146.99,333.75 C146.98,334.16 146.70,335.51 146.37,336.75 Z" fill="rgb(4,4,4)"/>
<path d="M 176.58 300.75 C174.85,302.48 162.08,301.38 161.34,299.44 C161.04,298.65 160.38,298.27 159.87,298.58 C159.36,298.90 157.65,297.77 156.07,296.08 C154.49,294.38 152.80,293.00 152.32,293.00 C150.46,293.00 145.63,286.31 144.74,282.50 C142.72,273.85 142.78,269.04 145.04,260.23 C146.27,255.43 148.16,249.75 149.23,247.61 C150.30,245.47 150.98,242.68 150.73,241.39 C150.47,240.02 150.69,239.31 151.27,239.67 C151.82,240.00 152.05,239.66 151.80,238.90 C151.55,238.14 151.94,236.92 152.67,236.19 C153.40,235.46 154.00,234.04 154.00,233.05 C154.00,232.06 154.68,230.68 155.50,230.00 C156.32,229.32 157.00,227.39 157.00,225.71 C157.00,224.04 157.28,222.95 157.62,223.29 C158.60,224.26 160.83,221.52 161.62,218.37 C162.01,216.79 163.15,214.38 164.16,213.00 C165.16,211.62 166.37,208.43 166.84,205.89 C167.31,203.36 168.43,200.22 169.34,198.92 C170.26,197.62 171.00,195.95 171.00,195.21 C171.00,194.48 172.11,191.44 173.47,188.46 C174.84,185.49 176.24,181.80 176.61,180.28 C176.97,178.75 178.27,176.15 179.50,174.49 C180.73,172.83 182.05,170.03 182.44,168.25 C182.83,166.48 183.57,164.77 184.08,164.45 C184.58,164.14 185.01,162.67 185.02,161.19 C185.04,159.71 186.61,155.60 188.52,152.05 C190.44,148.50 192.00,144.62 192.00,143.43 C192.00,142.24 192.88,140.15 193.96,138.77 C195.58,136.71 196.50,134.10 197.90,127.48 C197.95,127.21 198.00,126.30 198.00,125.44 C198.00,124.58 198.40,124.13 198.89,124.43 C199.38,124.74 200.04,123.98 200.35,122.74 C200.94,120.40 212.12,108.00 213.64,108.00 C214.12,108.00 215.15,106.54 215.93,104.75 C218.40,99.08 221.71,95.46 224.65,95.22 C226.17,95.09 229.08,93.83 231.13,92.41 C233.76,90.59 237.00,89.56 242.16,88.91 C249.69,87.97 258.63,88.59 259.58,90.13 C259.88,90.61 260.88,91.00 261.81,91.01 C262.74,91.01 264.84,91.71 266.48,92.56 C268.11,93.42 270.25,93.91 271.23,93.65 C272.32,93.36 272.75,93.60 272.34,94.26 C271.91,94.95 272.29,95.10 273.39,94.68 C274.36,94.31 274.85,94.43 274.52,94.96 C274.20,95.48 274.97,96.42 276.22,97.06 C279.93,98.96 291.00,110.29 291.00,112.20 C291.00,113.16 292.11,114.68 293.46,115.57 C294.81,116.45 296.22,118.12 296.59,119.27 C296.95,120.42 298.54,123.15 300.12,125.33 C301.71,127.51 303.00,130.12 303.00,131.12 C303.00,132.11 303.63,134.41 304.39,136.22 C305.16,138.02 306.56,142.20 307.50,145.50 C308.44,148.80 310.22,152.85 311.45,154.50 C312.69,156.15 314.27,159.30 314.97,161.50 C316.82,167.30 320.16,173.00 321.72,173.00 C323.40,173.00 325.12,177.26 323.78,178.12 C323.19,178.49 323.44,179.95 324.41,181.82 C325.28,183.51 326.00,186.08 326.00,187.52 C326.00,189.73 326.35,190.05 328.25,189.58 C329.49,189.27 329.94,189.28 329.25,189.59 C327.33,190.47 327.77,192.01 329.75,191.37 C330.90,191.00 331.09,191.11 330.31,191.68 C328.76,192.81 330.33,200.17 333.05,204.59 C334.12,206.32 335.00,208.59 335.00,209.63 C335.00,210.67 335.90,212.08 337.00,212.77 C339.86,214.56 339.50,217.70 336.25,219.33 C334.32,220.30 330.53,220.62 323.50,220.42 C309.04,219.99 299.00,218.97 299.00,217.91 C299.00,217.41 298.30,217.00 297.44,217.00 C296.58,217.00 296.16,217.45 296.50,218.00 C296.84,218.55 296.39,219.00 295.50,219.00 C294.61,219.00 294.15,219.44 294.48,219.97 C295.04,220.87 293.40,221.49 288.50,222.22 C286.91,222.46 286.44,223.41 286.19,226.87 C286.00,229.47 285.08,232.07 283.90,233.34 C282.81,234.51 281.69,236.59 281.40,237.98 C281.11,239.37 279.72,243.65 278.32,247.50 C276.91,251.35 275.35,255.62 274.86,257.00 C273.85,259.81 268.68,263.20 266.62,262.41 C265.88,262.12 264.77,260.79 264.16,259.44 C263.54,258.10 262.69,257.00 262.27,257.00 C261.84,257.00 261.35,254.44 261.18,251.31 C260.98,247.70 260.16,244.62 258.93,242.90 C257.87,241.41 257.00,238.99 257.00,237.53 C257.00,236.07 256.12,232.76 255.04,230.19 C253.97,227.61 252.62,222.81 252.04,219.53 C251.46,216.24 250.28,212.87 249.42,212.03 C248.02,210.65 247.62,210.80 245.42,213.50 C244.08,215.15 242.26,218.98 241.38,222.00 C239.25,229.35 238.71,230.33 236.16,231.49 C234.96,232.04 233.73,233.27 233.42,234.24 C232.97,235.68 231.69,236.00 226.30,236.00 C217.06,236.00 212.09,237.65 211.44,240.91 C210.49,245.71 207.72,253.49 206.43,255.00 C205.72,255.82 204.38,259.55 203.44,263.28 C202.35,267.65 201.07,270.43 199.87,271.07 C198.57,271.77 198.00,273.18 198.00,275.71 C198.00,277.77 197.24,280.18 196.25,281.27 C195.29,282.33 194.04,284.84 193.48,286.85 C192.74,289.51 191.60,290.88 189.29,291.91 C187.07,292.89 186.01,294.11 185.80,295.91 C185.57,297.93 184.87,298.57 182.63,298.83 C181.05,299.01 179.27,298.67 178.68,298.08 C177.11,296.51 175.00,296.76 175.00,298.50 C175.00,299.33 175.52,300.00 176.17,300.00 C176.81,300.00 176.99,300.34 176.58,300.75 ZM 267.77 235.03 C269.14,236.12 270.62,237.00 271.05,237.00 C271.47,237.00 274.28,231.94 277.29,225.75 C283.36,213.26 286.15,202.03 284.13,198.24 C283.51,197.08 283.00,195.27 283.00,194.22 C283.00,193.17 282.15,191.54 281.12,190.61 C280.09,189.67 278.96,187.18 278.63,185.07 C278.22,182.52 277.18,180.69 275.51,179.60 C273.77,178.46 273.00,177.05 273.00,175.00 C273.00,173.37 272.38,170.34 271.62,168.27 C270.86,166.20 269.66,162.48 268.94,160.00 C265.84,149.27 262.85,145.73 253.25,141.49 L 247.01 138.73 L 243.00 141.38 C240.80,142.84 239.00,144.68 239.00,145.48 C239.00,146.36 238.41,146.71 237.50,146.36 C235.83,145.72 235.35,148.48 236.96,149.48 C238.26,150.28 236.07,155.00 234.41,155.00 C232.99,155.00 225.00,170.93 225.00,173.77 C225.00,174.76 224.07,177.36 222.93,179.54 C221.08,183.07 219.55,186.99 214.33,201.60 L 212.86 205.69 L 196.68 206.35 L 180.50 207.00 L 177.81 210.25 C174.05,214.79 173.36,218.06 175.77,220.01 C176.85,220.89 177.55,222.49 177.37,223.69 C177.18,224.89 177.70,226.05 178.56,226.39 C181.83,227.64 198.00,229.03 207.50,228.88 C213.00,228.79 218.60,228.78 219.94,228.85 C221.29,228.93 224.33,228.05 226.69,226.91 C229.88,225.37 231.00,224.23 231.00,222.57 C231.00,221.15 231.91,219.91 233.45,219.21 C235.11,218.45 236.10,216.96 236.56,214.55 C236.92,212.60 237.66,211.00 238.19,211.00 C238.75,211.00 238.88,209.71 238.49,207.96 C238.04,205.91 238.34,204.13 239.41,202.49 C240.29,201.16 241.00,198.26 241.00,196.06 C241.00,192.93 241.53,191.70 243.40,190.48 C244.71,189.61 246.02,188.03 246.30,186.95 C247.10,183.89 249.75,184.66 251.57,188.50 C252.48,190.43 253.58,192.00 254.02,192.00 C254.45,192.00 255.01,194.14 255.25,196.75 C255.65,200.99 256.34,203.47 259.08,210.50 C259.51,211.60 260.14,214.30 260.49,216.50 C261.11,220.43 262.30,224.77 264.27,230.28 C264.82,231.82 266.40,233.95 267.77,235.03 Z" fill="rgb(42,162,110)"/>
<path d="M 267.77 235.03 C266.40,233.95 264.82,231.82 264.27,230.28 C262.30,224.77 261.11,220.43 260.49,216.50 C260.14,214.30 259.51,211.60 259.08,210.50 C256.34,203.47 255.65,200.99 255.25,196.75 C255.01,194.14 254.45,192.00 254.02,192.00 C253.58,192.00 252.48,190.43 251.57,188.50 C249.75,184.66 247.10,183.89 246.30,186.95 C246.02,188.03 244.71,189.61 243.40,190.48 C241.53,191.70 241.00,192.93 241.00,196.06 C241.00,198.26 240.29,201.16 239.41,202.49 C238.34,204.13 238.04,205.91 238.49,207.96 C238.88,209.71 238.75,211.00 238.19,211.00 C237.66,211.00 236.92,212.60 236.56,214.55 C236.10,216.96 235.11,218.45 233.45,219.21 C231.91,219.91 231.00,221.15 231.00,222.57 C231.00,224.23 229.88,225.37 226.69,226.91 C224.33,228.05 221.29,228.93 219.94,228.85 C218.60,228.78 213.00,228.79 207.50,228.88 C198.00,229.03 181.83,227.64 178.56,226.39 C177.70,226.05 177.18,224.89 177.37,223.69 C177.55,222.49 176.85,220.89 175.77,220.01 C173.36,218.06 174.05,214.79 177.81,210.25 L 180.50 207.00 L 196.68 206.35 L 212.86 205.69 L 214.33 201.60 C219.55,186.99 221.08,183.07 222.93,179.54 C224.07,177.36 225.00,174.76 225.00,173.77 C225.00,170.93 232.99,155.00 234.41,155.00 C236.07,155.00 238.26,150.28 236.96,149.48 C235.35,148.48 235.83,145.72 237.50,146.36 C238.41,146.71 239.00,146.36 239.00,145.48 C239.00,144.68 240.80,142.84 243.00,141.38 L 247.01 138.73 L 253.25 141.49 C262.85,145.73 265.84,149.27 268.94,160.00 C269.66,162.48 270.86,166.20 271.62,168.27 C272.38,170.34 273.00,173.37 273.00,175.00 C273.00,177.05 273.77,178.46 275.51,179.60 C277.18,180.69 278.22,182.52 278.63,185.07 C278.96,187.18 280.09,189.67 281.12,190.61 C282.15,191.54 283.00,193.17 283.00,194.22 C283.00,195.27 283.51,197.08 284.13,198.24 C286.15,202.03 283.36,213.26 277.29,225.75 C274.28,231.94 271.47,237.00 271.05,237.00 C270.62,237.00 269.14,236.12 267.77,235.03 ZM 268.43 229.87 C269.32,231.59 270.44,233.00 270.92,233.00 C271.39,233.00 273.74,228.16 276.14,222.25 C280.03,212.65 280.50,210.64 280.50,203.45 C280.50,197.79 280.03,194.68 278.91,192.95 C278.03,191.60 276.50,187.80 275.50,184.50 C274.50,181.20 273.12,177.38 272.43,176.00 C271.75,174.62 269.73,169.47 267.94,164.55 C266.16,159.63 263.82,154.11 262.74,152.28 C260.05,147.73 253.43,144.00 248.03,144.00 C244.40,144.00 243.21,144.55 240.37,147.57 C238.52,149.53 236.71,152.32 236.35,153.76 C235.98,155.20 232.92,163.17 229.53,171.46 C226.15,179.75 221.86,191.25 220.01,197.01 C218.15,202.78 216.21,208.06 215.70,208.75 C215.01,209.66 210.25,210.00 198.13,210.02 C188.98,210.02 180.88,210.43 180.11,210.91 C179.35,211.39 178.52,213.99 178.26,216.68 L 178.26 216.70 C178.03,219.09 177.87,220.75 178.55,221.90 C180.08,224.49 185.85,224.56 204.51,224.82 L 227.73 225.13 L 229.95 221.36 C231.17,219.29 233.29,213.98 234.67,209.55 C237.86,199.27 244.09,183.07 245.08,182.45 C245.50,182.19 247.25,181.82 248.96,181.62 C251.51,181.32 252.32,181.73 253.40,183.88 C255.42,187.88 261.94,208.42 263.44,215.50 C264.15,218.84 267.06,227.21 268.43,229.87 ZM 176.58 300.75 C176.99,300.34 176.81,300.00 176.17,300.00 C175.52,300.00 175.00,299.33 175.00,298.50 C175.00,296.76 177.11,296.51 178.68,298.08 C179.27,298.67 181.05,299.01 182.63,298.83 C184.87,298.57 185.57,297.93 185.80,295.91 C186.01,294.11 187.07,292.89 189.29,291.91 C191.60,290.88 192.74,289.51 193.48,286.85 C194.04,284.84 195.29,282.33 196.25,281.27 C197.24,280.18 198.00,277.77 198.00,275.71 C198.00,273.18 198.57,271.77 199.87,271.07 C201.07,270.43 202.35,267.65 203.44,263.28 C204.38,259.55 205.72,255.82 206.43,255.00 C207.72,253.49 210.49,245.71 211.44,240.91 C212.09,237.65 217.06,236.00 226.30,236.00 C231.69,236.00 232.97,235.68 233.42,234.24 C233.73,233.27 234.96,232.04 236.16,231.49 C238.71,230.33 239.25,229.35 241.38,222.00 C242.26,218.98 244.08,215.15 245.42,213.50 C247.62,210.80 248.02,210.65 249.42,212.03 C250.28,212.87 251.46,216.24 252.04,219.53 C252.62,222.81 253.97,227.61 255.04,230.19 C256.12,232.76 257.00,236.07 257.00,237.53 C257.00,238.99 257.87,241.41 258.93,242.90 C260.16,244.62 260.98,247.70 261.18,251.31 C261.35,254.44 261.84,257.00 262.27,257.00 C262.69,257.00 263.54,258.10 264.16,259.44 C264.77,260.79 265.88,262.12 266.62,262.41 C268.68,263.20 273.85,259.81 274.86,257.00 C275.35,255.62 276.91,251.35 278.32,247.50 C279.72,243.65 281.11,239.37 281.40,237.98 C281.69,236.59 282.81,234.51 283.90,233.34 C285.08,232.07 286.00,229.47 286.19,226.87 C286.44,223.41 286.91,222.46 288.50,222.22 C293.40,221.49 295.04,220.87 294.48,219.97 C294.15,219.44 294.61,219.00 295.50,219.00 C296.39,219.00 296.84,218.55 296.50,218.00 C296.16,217.45 296.58,217.00 297.44,217.00 C298.30,217.00 299.00,217.41 299.00,217.91 C299.00,218.97 309.04,219.99 323.50,220.42 C330.53,220.62 334.32,220.30 336.25,219.33 C339.50,217.70 339.86,214.56 337.00,212.77 C335.90,212.08 335.00,210.67 335.00,209.63 C335.00,208.59 334.12,206.32 333.05,204.59 C330.33,200.17 328.76,192.81 330.31,191.68 C331.09,191.11 330.90,191.00 329.75,191.37 C327.77,192.01 327.33,190.47 329.25,189.59 C329.94,189.28 329.49,189.27 328.25,189.58 C326.35,190.05 326.00,189.73 326.00,187.52 C326.00,186.08 325.28,183.51 324.41,181.82 C323.44,179.95 323.19,178.49 323.78,178.12 C325.12,177.26 323.40,173.00 321.72,173.00 C320.16,173.00 316.82,167.30 314.97,161.50 C314.27,159.30 312.69,156.15 311.45,154.50 C310.22,152.85 308.44,148.80 307.50,145.50 C306.56,142.20 305.16,138.02 304.39,136.22 C303.63,134.41 303.00,132.11 303.00,131.12 C303.00,130.12 301.71,127.51 300.12,125.33 C298.54,123.15 296.95,120.42 296.59,119.27 C296.22,118.12 294.81,116.45 293.46,115.57 C292.11,114.68 291.00,113.16 291.00,112.20 C291.00,110.29 279.93,98.96 276.22,97.06 C274.97,96.42 274.20,95.48 274.52,94.96 C274.85,94.43 274.36,94.31 273.39,94.68 C272.29,95.10 271.91,94.95 272.34,94.26 C272.75,93.60 272.32,93.36 271.23,93.65 C270.25,93.91 268.11,93.42 266.48,92.56 C264.84,91.71 262.74,91.01 261.81,91.01 C260.88,91.00 259.88,90.61 259.58,90.13 C258.63,88.59 249.69,87.97 242.16,88.91 C237.00,89.56 233.76,90.59 231.13,92.41 C229.08,93.83 226.17,95.09 224.65,95.22 C221.71,95.46 218.40,99.08 215.93,104.75 C215.15,106.54 214.12,108.00 213.64,108.00 C213.09,108.00 211.29,109.61 209.17,111.79 C209.28,111.67 209.39,111.55 209.50,111.42 C211.14,109.54 212.94,108.00 213.50,108.00 C214.91,108.00 218.09,100.40 217.42,98.65 C216.72,96.84 220.96,93.80 229.68,89.85 C235.92,87.01 237.22,86.80 247.95,86.79 C257.96,86.79 260.37,87.12 266.00,89.33 C286.80,97.47 295.14,106.79 307.78,136.00 C315.93,154.86 323.00,171.92 323.00,172.74 C323.00,173.17 324.11,175.60 325.47,178.16 C326.83,180.71 329.02,185.66 330.35,189.15 C331.67,192.64 334.47,199.10 336.56,203.50 C339.30,209.25 340.39,212.89 340.43,216.42 C340.50,221.18 340.39,221.37 337.15,222.23 C335.31,222.71 324.19,222.97 312.44,222.80 L 291.08 222.50 L 287.67 232.50 C282.67,247.18 279.36,255.59 276.79,260.15 C273.12,266.70 266.38,269.04 263.57,264.75 C261.81,262.06 255.14,243.94 254.09,239.00 C253.68,237.07 252.77,234.43 252.07,233.12 C251.37,231.82 250.55,227.19 250.25,222.84 C249.44,211.04 247.61,211.23 244.11,223.50 C241.38,233.08 238.67,237.79 235.12,239.15 C233.64,239.72 229.24,239.89 225.00,239.54 C220.88,239.21 217.05,239.29 216.49,239.72 C215.94,240.15 214.87,242.30 214.11,244.50 C208.83,259.89 198.02,285.29 194.58,290.39 C192.30,293.79 187.88,298.43 184.54,300.96 C179.08,305.08 178.03,305.48 172.04,305.76 C160.95,306.27 151.80,300.57 144.80,288.78 C140.65,281.79 140.62,281.67 140.56,271.62 C140.50,260.78 141.56,257.21 151.76,234.00 C153.19,230.76 155.55,224.84 160.95,211.00 C162.13,207.98 163.71,204.15 164.46,202.50 C165.21,200.85 166.99,196.94 168.41,193.81 C169.84,190.69 171.00,187.70 171.00,187.17 C171.00,186.30 176.83,173.03 179.08,168.76 C179.59,167.81 180.00,166.52 180.00,165.90 C180.00,165.27 181.80,160.77 184.00,155.88 C186.20,150.99 188.00,146.41 188.00,145.69 C188.00,144.98 189.06,142.17 190.35,139.45 C191.64,136.73 194.42,130.51 196.52,125.64 C201.17,114.89 203.20,112.09 205.14,113.70 C205.96,114.38 206.69,114.27 208.01,113.01 C204.52,116.73 200.69,121.40 200.35,122.74 C200.04,123.98 199.38,124.74 198.89,124.43 C198.40,124.13 198.00,124.58 198.00,125.44 C198.00,126.30 197.95,127.21 197.90,127.48 C196.50,134.10 195.58,136.71 193.96,138.77 C192.88,140.15 192.00,142.24 192.00,143.43 C192.00,144.62 190.44,148.50 188.52,152.05 C186.61,155.60 185.04,159.71 185.02,161.19 C185.01,162.67 184.58,164.14 184.08,164.45 C183.57,164.77 182.83,166.48 182.44,168.25 C182.05,170.03 180.73,172.83 179.50,174.49 C178.27,176.15 176.97,178.75 176.61,180.28 C176.24,181.80 174.84,185.49 173.47,188.46 C172.11,191.44 171.00,194.48 171.00,195.21 C171.00,195.95 170.26,197.62 169.34,198.92 C168.43,200.22 167.31,203.36 166.84,205.89 C166.37,208.43 165.16,211.62 164.16,213.00 C163.15,214.38 162.01,216.79 161.62,218.37 C160.83,221.52 158.60,224.26 157.62,223.29 C157.28,222.95 157.00,224.04 157.00,225.71 C157.00,227.39 156.32,229.32 155.50,230.00 C154.68,230.68 154.00,232.06 154.00,233.05 C154.00,234.04 153.40,235.46 152.67,236.19 C151.94,236.92 151.55,238.14 151.80,238.90 C152.05,239.66 151.82,240.00 151.27,239.67 C150.69,239.31 150.47,240.02 150.73,241.39 C150.98,242.68 150.30,245.47 149.23,247.61 C148.16,249.75 146.27,255.43 145.04,260.23 C142.78,269.04 142.72,273.85 144.74,282.50 C145.63,286.31 150.46,293.00 152.32,293.00 C152.80,293.00 154.49,294.38 156.07,296.08 C157.65,297.77 159.36,298.90 159.87,298.58 C160.38,298.27 161.04,298.65 161.34,299.44 C162.08,301.38 174.85,302.48 176.58,300.75 ZM 315.00 302.51 C315.00,303.62 313.29,302.76 309.75,299.87 C305.49,296.39 305.04,295.00 308.17,295.00 C309.36,295.00 310.04,295.29 309.68,295.65 C309.32,296.01 310.37,297.59 312.01,299.16 C313.66,300.73 315.00,302.24 315.00,302.51 ZM 301.90 242.44 C300.09,245.52 298.00,247.14 298.00,245.47 C298.00,243.36 301.19,238.00 302.45,238.00 C304.44,238.00 304.41,238.19 301.90,242.44 ZM 358.67 260.29 C359.42,262.71 359.36,263.88 358.45,264.73 C357.49,265.62 357.09,265.38 356.69,263.69 C356.40,262.49 355.85,260.49 355.46,259.25 C354.96,257.63 355.17,257.00 356.22,257.00 C357.01,257.00 358.12,258.48 358.67,260.29 ZM 300.00 284.07 C300.00,285.68 299.89,286.98 299.75,286.95 C298.95,286.79 295.24,278.00 295.97,278.00 C297.83,278.00 300.00,281.26 300.00,284.07 Z" fill="rgb(52,158,112)"/>
<path d="M 315.00 302.51 C315.00,302.24 313.66,300.73 312.01,299.16 C310.37,297.59 309.32,296.01 309.68,295.65 C310.04,295.29 309.36,295.00 308.17,295.00 C305.58,295.00 305.44,295.95 307.88,298.24 C304.56,295.38 303.07,293.21 299.69,286.93 C299.71,286.94 299.73,286.95 299.75,286.95 C299.89,286.98 300.00,285.68 300.00,284.07 C300.00,281.26 297.83,278.00 295.97,278.00 C295.60,278.00 296.34,280.16 297.26,282.36 L 294.68 277.50 L 294.59 266.00 C294.52,256.25 294.87,253.51 296.89,248.00 C298.42,243.82 298.97,241.37 300.39,239.94 C299.18,241.69 298.00,244.18 298.00,245.47 C298.00,247.14 300.09,245.52 301.90,242.44 C303.36,239.98 303.98,238.88 303.85,238.39 C306.39,237.94 310.34,237.96 316.87,237.98 C318.67,237.99 320.67,238.00 322.89,238.00 C335.97,238.00 345.95,238.43 347.81,239.08 C350.85,240.14 352.57,243.26 355.49,253.00 C355.91,254.38 356.57,255.95 356.98,256.50 C357.43,257.12 357.93,258.24 358.36,259.42 C357.76,258.03 356.88,257.00 356.22,257.00 C355.17,257.00 354.96,257.63 355.46,259.25 C355.85,260.49 356.40,262.49 356.69,263.69 C357.09,265.38 357.49,265.62 358.45,264.73 C359.17,264.05 359.36,263.17 359.03,261.62 C359.36,262.95 359.47,264.00 359.13,264.00 C358.72,264.00 358.35,266.93 358.31,270.52 C358.17,285.28 353.00,293.75 338.55,302.88 C334.39,305.51 332.66,305.99 327.55,305.96 C322.16,305.92 318.11,305.03 314.31,302.93 C314.77,303.06 315.00,302.92 315.00,302.51 ZM 209.50 111.42 C209.39,111.55 209.28,111.67 209.17,111.79 C208.79,112.18 208.41,112.59 208.01,113.01 C206.69,114.27 205.96,114.38 205.14,113.70 C204.39,113.08 203.62,113.12 202.69,114.03 C206.22,108.53 209.71,104.70 210.93,105.46 C212.12,106.19 213.65,104.59 216.15,100.00 C216.57,99.24 216.95,98.59 217.37,98.00 C217.33,98.23 217.34,98.45 217.42,98.65 C218.09,100.40 214.91,108.00 213.50,108.00 C212.94,108.00 211.14,109.54 209.50,111.42 ZM 231.33 89.11 L 235.93 86.80 L 246.74 86.79 C238.06,86.82 236.04,87.07 231.33,89.11 ZM 197.31 123.85 C197.05,124.42 196.79,125.02 196.52,125.64 C195.43,128.17 194.15,131.07 193.00,133.65 L 193.00 133.63 C193.00,133.20 194.88,128.93 197.31,123.85 ZM 188.16 144.88 C188.06,145.25 188.00,145.53 188.00,145.69 C188.00,146.37 186.42,150.44 184.41,154.97 C186.42,150.44 188.00,146.35 188.00,145.67 C188.00,145.50 188.06,145.23 188.16,144.88 ZM 259.71 87.41 C261.78,87.79 263.59,88.39 266.00,89.33 C263.59,88.39 261.78,87.79 259.71,87.41 Z" fill="rgb(52,167,113)"/>
<path d="M 172.08 377.00 C171.03,377.00 169.53,377.24 168.76,377.54 C167.99,377.83 166.14,377.11 164.63,375.93 C162.11,373.94 161.77,373.90 160.12,375.39 C154.66,380.33 147.45,373.63 151.04,366.93 C152.29,364.59 159.11,364.23 160.93,366.41 C162.48,368.29 160.45,369.62 158.50,368.00 C156.63,366.45 153.00,367.69 153.00,369.88 C153.00,370.83 153.64,372.49 154.43,373.56 C155.58,375.11 156.12,375.25 157.13,374.25 C157.83,373.56 159.43,373.00 160.70,373.00 C162.47,373.00 163.00,372.44 163.00,370.58 C163.00,368.08 164.72,367.35 171.25,367.12 C173.90,367.03 174.00,367.21 174.00,372.01 C174.00,376.26 173.72,377.00 172.08,377.00 ZM 251.87 375.27 C250.74,377.29 245.04,377.64 243.20,375.80 C242.54,375.14 242.00,373.33 242.00,371.78 C242.00,368.29 245.49,366.36 249.68,367.54 C252.81,368.42 252.81,368.42 255.18,367.49 C256.52,366.97 256.93,367.52 257.18,370.17 C257.61,374.65 260.38,374.71 260.81,370.25 C261.01,368.24 261.67,367.00 262.56,367.00 C263.62,367.00 264.00,368.32 264.00,372.00 L 264.00 377.00 L 260.33 377.00 C258.25,377.00 255.83,376.25 254.75,375.27 C252.94,373.63 252.79,373.63 251.87,375.27 ZM 284.39 373.81 C283.89,376.28 283.24,377.00 281.45,377.00 C279.70,377.00 279.02,376.29 278.58,374.00 L 277.42 368.00 C276.97,365.67 277.20,365.00 278.45,365.00 C279.43,365.00 280.28,366.16 280.65,368.00 C280.98,369.65 281.59,371.00 282.00,371.00 C282.41,371.00 283.02,369.65 283.35,368.00 C284.20,363.73 287.50,363.89 288.49,368.25 L 289.23 371.50 L 290.26 368.25 C291.77,363.49 294.29,363.89 293.41,368.75 C292.26,374.99 291.14,377.17 289.26,376.81 C288.30,376.63 287.36,375.58 287.16,374.49 C286.51,370.86 285.05,370.50 284.39,373.81 ZM 206.00 374.56 C206.00,376.34 205.46,377.00 203.98,377.00 C201.82,377.00 200.60,374.74 199.45,368.61 C198.92,365.78 199.10,365.00 200.26,365.00 C201.13,365.00 202.01,366.32 202.39,368.19 C203.05,371.50 204.51,371.14 205.17,367.50 C205.68,364.65 209.41,364.85 209.82,367.75 C210.25,370.75 211.81,370.61 212.59,367.50 C212.93,366.12 213.78,365.00 214.48,365.00 C215.44,365.00 215.53,366.13 214.87,369.75 C213.65,376.36 213.32,377.00 211.16,377.00 C209.83,377.00 209.06,376.07 208.64,373.93 C207.93,370.42 206.00,370.88 206.00,374.56 ZM 179.00 375.22 C179.00,376.20 178.32,377.00 177.50,377.00 C176.36,377.00 176.00,375.77 176.00,371.93 C176.00,366.99 176.07,366.86 178.75,367.14 C180.26,367.30 182.08,367.85 182.79,368.37 C183.63,368.98 184.49,368.91 185.24,368.16 C188.33,365.07 194.92,368.41 192.96,372.07 C192.39,373.13 192.23,374.00 192.59,374.00 C192.95,374.00 192.68,374.67 192.00,375.50 C190.08,377.81 186.26,377.33 184.44,374.54 C183.55,373.19 183.10,371.65 183.43,371.11 C183.76,370.58 183.61,369.87 183.08,369.55 C181.90,368.82 179.00,372.84 179.00,375.22 ZM 347.32 380.20 C345.54,382.16 342.48,382.59 341.50,381.00 C341.16,380.45 341.53,380.00 342.32,380.00 C343.11,380.00 344.32,379.33 345.00,378.50 C346.06,377.22 345.79,377.00 343.16,377.00 C339.89,377.00 338.00,374.84 338.00,371.10 C338.00,368.55 340.82,367.00 345.43,367.00 C348.86,367.00 349.01,367.15 349.16,370.75 C349.40,376.58 349.08,378.25 347.32,380.20 ZM 306.00 367.20 L 306.00 377.00 L 302.20 377.00 C297.72,377.00 296.00,375.59 296.00,371.92 C296.00,368.43 297.65,367.19 302.25,367.19 ZM 312.07 372.42 C311.18,378.54 309.00,378.22 309.00,371.97 C309.00,366.97 309.09,366.80 311.45,367.40 C313.15,367.82 314.18,367.51 314.82,366.36 C315.65,364.87 315.95,364.85 317.92,366.23 C319.89,367.61 319.95,367.91 318.55,369.31 C317.35,370.51 317.22,371.46 318.00,373.50 C319.29,376.90 319.28,377.00 317.48,377.00 C316.08,377.00 315.57,376.20 313.40,370.50 C312.78,368.88 312.53,369.25 312.07,372.42 ZM 234.00 373.43 C234.00,375.94 233.55,377.00 232.50,377.00 C231.32,377.00 231.00,375.61 231.00,370.50 C231.00,365.31 231.31,364.00 232.54,364.00 C233.46,364.00 233.97,364.71 233.79,365.75 C233.57,367.11 234.09,367.43 236.15,367.19 C239.37,366.82 240.43,368.30 240.47,373.27 C240.49,376.10 240.12,376.98 239.00,376.76 C238.07,376.58 237.50,375.34 237.50,373.50 C237.50,371.46 236.95,370.42 235.75,370.19 C234.35,369.92 234.00,370.56 234.00,373.43 ZM 330.00 373.50 C330.00,375.98 329.55,377.00 328.47,377.00 C326.51,377.00 325.78,375.05 326.18,370.89 C326.47,367.89 326.82,367.56 330.00,367.37 C335.05,367.06 336.76,368.69 336.22,373.30 C335.68,377.84 333.64,377.75 333.19,373.17 C332.74,368.63 330.00,368.91 330.00,373.50 ZM 271.50 376.00 C270.63,377.41 268.01,377.24 267.56,375.75 C265.05,367.54 266.74,362.60 270.71,366.56 C271.87,367.73 271.98,368.42 271.14,369.26 C269.70,370.70 269.65,375.00 271.06,375.00 C271.64,375.00 271.84,375.45 271.50,376.00 ZM 229.00 376.00 C229.00,377.45 225.01,377.23 224.56,375.75 C222.77,369.91 223.14,365.00 225.37,365.00 C227.02,365.00 229.20,368.76 227.98,369.51 C226.69,370.31 226.71,375.00 228.00,375.00 C228.55,375.00 229.00,375.45 229.00,376.00 ZM 221.00 372.00 C221.00,375.78 220.63,377.00 219.50,377.00 C218.37,377.00 218.00,375.78 218.00,372.00 C218.00,368.22 218.37,367.00 219.50,367.00 C220.63,367.00 221.00,368.22 221.00,372.00 ZM 324.00 371.92 C324.00,375.85 323.65,377.00 322.45,377.00 C321.22,377.00 320.95,376.02 321.20,372.33 C321.63,365.66 324.00,365.31 324.00,371.92 ZM 299.69 374.35 C300.88,375.55 302.49,374.43 302.82,372.17 C303.06,370.54 302.63,370.00 301.07,370.00 C299.04,370.00 298.15,372.81 299.69,374.35 ZM 167.69 374.35 C168.88,375.55 170.49,374.43 170.82,372.17 C171.06,370.54 170.63,370.00 169.07,370.00 C167.04,370.00 166.15,372.81 167.69,374.35 ZM 341.62 373.46 C342.46,375.65 344.42,374.86 344.82,372.17 C345.06,370.54 344.63,370.00 343.07,370.00 C340.90,370.00 340.59,370.76 341.62,373.46 ZM 245.62 373.45 C246.46,375.65 248.42,374.86 248.82,372.17 C249.03,370.76 248.61,370.00 247.63,370.00 C245.66,370.00 244.84,371.41 245.62,373.45 Z" fill="rgb(55,113,95)"/>
<path d="M 219.47 95.46 C218.21,96.44 217.51,97.29 217.37,98.00 C216.95,98.59 216.57,99.24 216.15,100.00 C213.65,104.59 212.12,106.19 210.93,105.46 C209.71,104.70 206.22,108.53 202.69,114.03 C202.13,114.58 201.51,115.45 200.79,116.69 C205.91,107.29 211.72,100.67 219.47,95.46 ZM 359.32 263.73 C360.40,269.59 360.03,275.94 358.10,279.55 C357.45,280.76 356.87,282.02 356.48,283.02 C357.70,279.34 358.27,275.25 358.31,270.52 C358.35,266.93 358.72,264.00 359.13,264.00 C359.24,264.00 359.30,263.90 359.32,263.73 ZM 356.15 283.96 C356.05,284.28 356.00,284.53 356.00,284.69 C356.00,286.29 354.27,288.98 351.57,291.96 C353.58,289.47 355.08,286.84 356.15,283.96 ZM 352.40 244.19 C350.98,241.09 349.63,239.72 347.81,239.08 C350.02,239.85 351.06,240.93 352.40,244.19 ZM 355.47 252.91 C355.87,253.90 356.50,255.31 357.20,256.80 C357.21,256.84 357.23,256.88 357.25,256.92 C357.16,256.76 357.07,256.62 356.98,256.50 C356.57,255.95 355.91,254.38 355.49,253.00 ZM 197.31 123.85 C197.05,124.38 196.81,124.90 196.57,125.41 C197.37,123.56 198.19,121.80 199.02,120.12 C198.49,121.21 197.92,122.45 197.31,123.85 Z" fill="rgb(79,158,125)"/>
<path d="M 0.00 0.00 L 500.00 0.00 L 500.00 500.00 L 0.00 500.00 ZM 170.00 308.97 C173.57,309.39 177.08,309.80 177.78,309.87 C178.49,309.94 180.34,308.70 181.89,307.11 C183.44,305.53 185.58,303.95 186.64,303.61 C189.39,302.74 197.75,292.48 200.10,287.08 C201.20,284.56 202.98,280.86 204.05,278.86 C205.12,276.86 206.00,274.52 206.00,273.64 C206.00,271.89 209.34,264.97 212.18,260.85 C213.18,259.39 214.02,257.14 214.04,255.85 C214.06,254.56 214.87,251.28 215.83,248.58 C217.93,242.66 220.93,241.19 231.18,241.08 C235.24,241.03 238.38,240.49 239.18,239.69 C239.91,238.98 241.24,238.11 242.14,237.77 C243.07,237.42 244.34,234.95 245.07,232.09 C245.79,229.31 246.61,227.27 246.90,227.57 C247.79,228.46 249.91,237.32 249.96,240.35 C249.98,241.91 250.83,244.39 251.84,245.85 C252.85,247.31 254.46,250.93 255.41,253.90 C258.52,263.60 261.21,268.82 263.40,269.41 C264.56,269.72 267.33,269.98 269.56,269.99 C274.03,270.00 278.11,266.73 279.52,262.00 C279.93,260.62 281.50,257.02 283.02,254.00 C284.53,250.98 286.49,246.08 287.37,243.12 C288.25,240.16 289.35,237.24 289.81,236.62 C290.27,236.00 291.19,233.61 291.85,231.29 C293.24,226.43 294.20,225.64 299.00,225.35 C304.57,225.02 304.62,225.02 323.29,225.30 C339.26,225.55 341.23,225.40 342.68,223.80 C344.53,221.76 344.65,219.13 343.33,209.87 C342.76,205.89 341.67,202.53 340.61,201.46 C337.74,198.60 334.49,192.83 333.17,188.29 C332.49,185.98 331.48,183.80 330.91,183.44 C329.57,182.61 327.93,178.34 327.41,174.31 C326.83,169.82 325.40,166.40 323.17,164.17 C322.12,163.12 320.01,158.26 318.48,153.38 C316.96,148.50 314.93,143.60 313.98,142.50 C313.04,141.40 311.94,139.15 311.56,137.50 C311.17,135.85 309.53,132.36 307.92,129.73 C306.32,127.11 305.00,124.32 305.00,123.53 C305.00,121.54 302.85,117.00 301.91,117.00 C301.48,117.00 300.82,115.99 300.43,114.75 C299.02,110.27 290.88,98.99 287.96,97.48 C286.31,96.63 283.43,94.44 281.55,92.61 C279.54,90.66 276.16,88.76 273.32,87.99 C270.67,87.28 268.04,86.34 267.48,85.91 C265.57,84.46 248.54,82.75 241.38,83.29 C235.68,83.72 232.55,84.67 225.87,87.99 C221.27,90.27 215.87,93.35 213.87,94.82 C208.25,98.97 201.52,107.20 198.49,113.65 C196.97,116.87 195.31,119.77 194.79,120.10 C194.28,120.44 193.43,122.59 192.91,124.90 C192.39,127.20 190.91,130.76 189.61,132.79 C188.31,134.83 186.21,139.88 184.93,144.00 C183.66,148.12 182.07,152.18 181.40,153.00 C180.73,153.82 178.75,158.77 176.99,164.00 C175.23,169.23 172.49,175.98 170.90,179.00 C169.31,182.02 168.00,185.49 168.00,186.70 C168.00,187.91 167.36,189.26 166.57,189.70 C165.78,190.14 163.94,193.88 162.47,198.00 C161.00,202.13 158.53,207.52 156.97,210.00 C154.20,214.41 153.50,216.44 152.63,222.50 C152.19,225.53 149.20,232.48 141.66,248.00 L 137.52 256.50 L 137.51 270.00 L 137.50 283.50 L 141.73 290.00 C144.05,293.58 146.62,297.46 147.43,298.63 C149.95,302.25 162.74,308.11 170.00,308.97 ZM 311.75 305.68 C316.82,309.05 318.21,309.50 323.50,309.50 C332.99,309.50 339.50,306.86 350.08,298.75 L 357.66 292.94 L 360.33 284.21 C363.60,273.51 363.92,262.63 361.14,256.50 C360.15,254.30 359.01,251.22 358.63,249.66 C356.48,241.05 347.72,231.02 344.05,232.97 C343.20,233.42 336.46,233.86 329.09,233.95 C321.71,234.03 314.83,234.55 313.80,235.11 C312.77,235.66 311.05,235.83 309.98,235.49 C308.91,235.15 306.18,234.85 303.91,234.82 C298.57,234.74 296.82,236.64 294.04,245.50 C292.83,249.35 291.58,253.18 291.25,254.00 C289.11,259.39 291.02,281.00 293.95,284.50 C294.88,285.60 296.41,288.30 297.37,290.50 C298.33,292.70 300.65,295.62 302.53,297.00 C304.41,298.38 305.96,300.03 305.97,300.68 C305.99,301.32 308.59,303.57 311.75,305.68 ZM 271.50 376.00 C271.84,375.45 271.64,375.00 271.06,375.00 C270.77,375.00 270.55,374.82 270.38,374.53 C270.68,374.80 271.18,374.76 272.00,374.50 C273.11,374.15 274.00,374.32 274.00,374.89 C274.00,375.45 275.16,377.07 276.58,378.48 C278.90,380.81 279.75,381.02 285.33,380.66 C288.72,380.45 292.31,379.93 293.30,379.51 C294.51,378.99 295.51,379.32 296.39,380.52 C297.44,381.95 298.41,382.14 301.59,381.50 C307.20,380.37 325.29,380.13 326.62,381.16 C327.81,382.09 331.00,381.28 331.00,380.06 C331.00,378.43 334.27,379.49 335.63,381.56 C336.86,383.44 337.91,383.75 342.47,383.61 C345.97,383.51 348.51,382.85 349.75,381.72 C350.80,380.78 352.86,380.00 354.33,380.00 C355.97,380.00 357.06,379.42 357.15,378.50 C357.23,377.67 357.35,376.51 357.40,375.90 C357.45,375.30 356.38,373.47 355.00,371.83 C347.18,362.53 345.76,361.78 340.52,364.17 C338.55,365.07 337.67,365.07 336.77,364.17 C336.13,363.53 334.45,362.99 333.05,362.98 C331.65,362.98 328.72,362.35 326.54,361.59 C324.33,360.82 321.67,360.54 320.54,360.94 C319.42,361.34 316.81,361.49 314.75,361.27 C312.69,361.05 311.00,361.31 311.00,361.84 C311.00,363.11 293.39,362.58 289.95,361.21 C288.23,360.53 286.81,360.53 285.59,361.21 C284.60,361.77 282.10,361.95 280.05,361.62 C277.99,361.29 275.98,361.36 275.57,361.76 C275.17,362.17 272.06,362.56 268.67,362.64 C265.28,362.72 261.15,363.11 259.50,363.51 C253.47,364.97 239.36,364.22 235.31,362.22 C232.45,360.81 229.89,360.43 225.00,360.69 C221.43,360.88 214.45,361.20 209.50,361.40 C204.55,361.60 199.15,362.17 197.50,362.67 C193.34,363.93 163.15,363.49 159.68,362.12 C155.07,360.29 152.05,360.80 148.92,363.92 C143.27,369.57 146.18,378.13 154.37,379.97 C156.50,380.45 159.13,380.52 160.22,380.11 C161.31,379.71 164.47,379.68 167.26,380.03 C170.04,380.39 174.38,380.28 176.91,379.80 C180.05,379.19 182.69,379.29 185.27,380.12 C188.96,381.31 189.13,381.25 192.41,377.67 C196.14,373.59 198.00,373.02 198.00,375.94 C198.00,378.21 199.52,379.36 203.00,379.72 C204.38,379.86 206.91,380.25 208.64,380.59 C210.36,380.92 212.73,380.68 213.91,380.05 C215.62,379.13 216.37,379.22 217.65,380.51 C218.57,381.42 219.96,381.83 220.88,381.46 C223.19,380.54 234.41,380.29 241.73,381.00 C245.16,381.33 248.09,381.22 248.25,380.76 C248.40,380.30 253.02,379.76 258.51,379.56 C268.28,379.21 272.00,378.52 272.00,377.06 C272.00,376.82 271.62,376.61 271.04,376.50 C271.22,376.37 271.38,376.20 271.50,376.00 ZM 200.21 354.50 C200.46,351.48 200.91,348.76 201.20,348.46 C201.50,348.17 202.90,348.45 204.33,349.10 C209.84,351.62 215.33,346.48 216.56,340.18 C216.70,342.04 217.10,342.52 218.00,342.29 C218.77,342.09 219.28,340.92 219.53,339.49 C220.32,346.85 226.94,351.89 234.18,349.11 C235.16,348.74 236.71,347.75 238.07,346.67 C236.87,347.82 236.00,348.88 236.00,349.22 C236.00,349.65 236.68,350.00 237.50,350.00 C238.32,350.00 239.00,349.38 239.00,348.62 C239.00,347.86 239.68,346.68 240.50,346.00 C241.32,345.32 242.00,344.40 242.00,343.97 C242.00,343.60 241.03,344.14 239.73,345.19 C241.62,343.31 242.00,341.95 242.00,337.97 C242.00,333.64 241.55,332.39 239.08,329.92 C236.69,327.53 235.31,327.00 231.53,327.00 C224.83,327.00 221.30,329.16 219.98,334.06 C219.82,334.66 219.70,335.25 219.61,335.84 C219.42,334.35 218.91,333.21 218.09,333.27 C217.26,333.33 216.82,333.88 216.63,335.36 C216.42,334.21 216.05,333.07 215.49,331.98 C213.33,327.81 211.36,327.10 202.16,327.16 L 194.00 327.21 L 193.88 340.10 C193.81,347.20 193.75,353.67 193.75,354.50 C193.75,359.54 194.01,360.00 196.88,360.00 C199.64,360.00 199.77,359.79 200.21,354.50 ZM 354.93 353.75 C359.53,343.57 366.00,328.31 366.00,327.63 C366.00,327.28 364.22,327.00 362.04,327.00 C358.22,327.00 358.03,327.16 356.94,331.25 C356.31,333.59 355.32,336.39 354.74,337.48 C353.81,339.22 353.42,338.75 351.46,333.48 L 349.23 327.50 L 343.64 327.20 C340.67,327.04 337.28,327.41 335.95,328.03 C336.38,327.61 336.55,326.98 336.33,326.42 C336.03,325.64 336.28,325.00 336.89,325.00 C337.50,325.00 338.00,325.45 338.00,326.00 C338.00,326.55 339.12,327.00 340.50,327.00 C343.19,327.00 343.88,325.55 341.61,324.68 C340.85,324.39 338.94,324.36 337.36,324.60 C335.79,324.85 333.94,325.12 333.25,325.20 C332.62,325.27 332.26,325.30 332.13,325.49 C331.96,325.74 332.15,326.23 332.59,327.37 L 332.61 327.42 C332.63,327.49 332.66,327.55 332.68,327.62 C332.03,327.25 330.89,327.00 329.67,327.00 L 326.50 327.00 L 326.81 337.89 C327.11,348.57 327.17,348.80 329.58,349.26 C332.69,349.85 333.44,348.63 333.13,343.52 C332.76,337.57 334.39,334.00 337.48,334.00 C338.50,334.00 339.13,333.87 339.51,333.49 C339.30,333.82 339.03,334.01 338.75,334.02 C337.92,334.03 338.00,334.35 339.00,335.00 C340.76,336.14 341.33,336.19 343.31,335.43 C344.32,335.05 344.54,334.70 343.98,333.34 C345.02,335.46 346.23,338.33 347.59,341.89 L 350.02 348.28 L 347.60 353.38 C346.26,356.18 345.39,358.82 345.65,359.24 C345.91,359.66 347.47,360.00 349.11,360.00 C351.82,360.00 352.38,359.40 354.93,353.75 ZM 172.80 353.35 L 173.09 347.20 L 176.09 348.70 C181.67,351.48 188.25,347.52 189.54,340.62 C190.38,336.17 189.66,333.11 186.98,329.70 C185.01,327.19 184.51,327.08 175.46,327.14 L 166.00 327.19 L 166.00 342.93 C166.00,351.59 166.32,358.99 166.71,359.38 C167.10,359.77 168.57,359.96 169.96,359.80 C172.33,359.52 172.52,359.10 172.80,353.35 ZM 315.28 348.64 C316.97,347.92 318.34,347.08 319.42,346.05 C318.63,347.07 319.23,347.59 321.24,347.74 C322.46,347.84 323.63,348.38 323.82,348.96 C324.01,349.54 324.58,349.76 325.09,349.45 C325.59,349.14 326.00,349.39 326.00,350.00 C326.00,350.61 326.43,350.85 326.96,350.53 C328.31,349.69 327.32,347.80 324.41,345.67 C322.42,344.21 321.61,344.08 320.45,345.04 C320.32,345.15 320.21,345.25 320.10,345.35 C321.59,343.62 322.42,341.43 322.75,338.57 C323.21,334.43 322.96,333.76 319.73,330.53 C316.62,327.42 315.59,327.00 311.16,327.00 C304.20,327.00 301.06,329.76 299.93,336.85 C298.89,343.43 299.12,343.98 304.23,347.29 C308.95,350.36 310.71,350.57 315.28,348.64 ZM 143.05 346.38 C143.83,344.31 144.60,344.00 149.00,344.00 C153.47,344.00 154.16,344.29 155.00,346.50 C155.77,348.51 156.64,349.00 159.48,349.00 C161.41,349.00 163.00,348.85 163.00,348.67 C163.00,348.32 159.40,338.13 155.70,328.00 C153.35,321.57 153.28,321.50 149.27,321.20 L 145.22 320.90 L 142.68 327.70 C136.24,344.92 135.09,348.33 135.49,348.98 C135.72,349.36 137.31,349.46 139.03,349.21 C141.15,348.90 142.43,347.99 143.05,346.38 ZM 265.00 341.54 C265.00,333.33 266.31,331.41 270.75,333.09 C272.81,333.86 273.00,334.57 273.00,341.47 L 273.00 349.00 L 280.00 349.00 L 280.00 340.45 C280.00,332.78 279.76,331.67 277.61,329.52 C275.45,327.36 274.37,327.13 266.61,327.15 L 258.00 327.17 L 258.00 349.00 L 265.00 349.00 ZM 297.00 346.04 C297.00,344.09 296.31,342.70 295.00,342.00 C293.53,341.21 293.00,339.91 293.00,337.08 C293.00,334.07 293.44,333.12 295.00,332.71 C296.35,332.36 297.00,331.35 297.00,329.59 C297.00,327.67 296.49,327.00 295.00,327.00 C293.56,327.00 293.00,326.33 293.00,324.61 C293.00,322.62 292.41,322.15 289.50,321.81 C286.38,321.45 286.00,321.66 286.00,323.73 C286.00,325.01 285.33,326.32 284.50,326.64 C283.67,326.95 283.00,328.30 283.00,329.64 C283.00,330.97 283.67,332.32 284.50,332.64 C285.60,333.06 286.00,334.79 286.00,339.11 C286.00,346.24 288.09,349.00 293.50,349.00 C296.71,349.00 297.00,348.76 297.00,346.04 ZM 253.00 338.06 C253.00,332.04 252.57,326.85 252.05,326.53 C251.52,326.20 249.95,326.23 248.55,326.58 C246.01,327.21 246.00,327.27 246.00,338.11 L 246.00 349.00 L 253.00 349.00 ZM 174.36 341.42 C173.08,339.47 172.90,338.19 173.61,336.17 C174.38,333.97 175.16,333.50 178.00,333.50 C180.90,333.50 181.61,333.96 182.46,336.35 C183.34,338.87 183.13,339.49 180.67,341.60 C177.16,344.62 176.44,344.60 174.36,341.42 ZM 228.07 341.10 C226.93,339.50 226.00,337.56 226.00,336.80 C226.00,333.07 231.52,331.71 234.27,334.75 C236.29,336.98 236.23,337.87 233.82,341.25 C231.36,344.71 230.63,344.69 228.07,341.10 ZM 201.48 341.43 C198.64,337.89 200.41,333.00 204.84,333.00 C210.20,333.00 211.80,337.96 207.69,341.83 C207.23,342.25 206.84,342.61 206.50,342.90 C206.64,341.85 204.68,339.42 201.83,337.19 C200.35,336.04 200.20,336.20 200.46,338.62 C200.57,339.55 200.96,340.59 201.48,341.43 ZM 308.57 342.43 C305.29,339.15 306.92,333.00 311.07,333.00 C315.57,333.00 317.39,337.82 314.55,341.39 C315.06,340.17 313.54,339.29 310.72,339.52 C309.50,339.62 308.17,339.20 307.77,338.60 C307.31,337.91 307.02,338.13 307.02,339.18 C307.01,340.10 307.71,341.56 308.57,342.43 ZM 252.68 322.37 C253.92,320.50 253.88,320.03 252.42,318.56 C250.41,316.56 247.10,316.86 245.64,319.19 C244.83,320.49 245.03,321.37 246.48,322.98 C248.74,325.47 250.75,325.28 252.68,322.37 ZM 242.00 338.50 L 242.00 342.00 L 244.00 340.00 C246.41,337.59 246.52,336.41 244.42,335.61 C242.04,334.69 242.00,334.74 242.00,338.50 ZM 341.64 329.46 C340.67,328.61 340.00,329.28 340.00,331.50 C340.00,328.93 340.59,328.31 341.64,329.46 ZM 266.69 366.62 C267.23,364.67 268.66,364.51 270.71,366.56 C268.71,364.57 267.29,364.83 266.69,366.62 ZM 203.10 343.05 C203.70,343.46 204.20,343.72 204.63,343.85 C204.16,343.83 203.70,343.57 203.10,343.05 ZM 312.97 342.95 C312.23,343.57 311.63,343.89 311.05,343.90 C311.58,343.85 312.17,343.53 312.97,342.95 ZM 270.18 371.31 C270.35,370.49 270.67,369.73 271.14,369.26 C270.74,369.66 270.38,370.45 270.18,371.31 Z" fill="rgb(254,254,254)"/>
<path d="M 239.08 367.76 C239.43,367.95 239.72,368.17 239.93,368.41 C241.05,369.76 241.45,369.75 243.59,368.35 C243.62,368.33 243.66,368.31 243.69,368.29 C242.63,369.09 242.00,370.29 242.00,371.78 C242.00,373.13 242.41,374.67 242.95,375.48 C242.55,375.34 242.06,375.54 241.42,376.06 C239.23,377.89 237.06,376.44 237.29,373.32 C237.37,372.22 237.26,371.44 236.93,370.93 C237.32,371.48 237.50,372.32 237.50,373.50 C237.50,375.34 238.07,376.58 239.00,376.76 C240.12,376.98 240.49,376.10 240.47,373.27 C240.44,370.32 240.06,368.60 239.08,367.76 ZM 339.68 368.27 C338.59,368.97 338.00,369.93 338.00,371.10 C338.00,372.49 338.26,373.66 338.76,374.58 C337.70,373.60 336.00,373.96 336.00,375.58 C336.00,377.07 335.36,377.25 334.68,376.66 C335.31,376.67 335.95,375.55 336.22,373.30 C336.51,370.81 336.15,369.19 334.95,368.27 C335.14,368.36 335.30,368.45 335.45,368.54 C337.17,369.66 337.81,369.64 339.44,368.44 C339.52,368.38 339.60,368.33 339.68,368.27 ZM 339.33 375.43 C340.22,376.45 341.51,377.00 343.16,377.00 C345.50,377.00 345.97,377.18 345.30,378.12 C345.97,377.18 345.49,377.00 343.09,377.00 C341.21,377.00 339.70,376.39 339.36,375.50 C339.35,375.48 339.34,375.45 339.33,375.43 ZM 243.61 376.13 C244.61,376.81 246.23,377.08 247.79,376.98 C246.05,377.14 244.29,376.89 243.61,376.13 ZM 330.00 373.50 C330.00,371.42 330.56,370.23 331.22,369.96 C330.56,370.24 330.00,371.47 330.00,373.57 C330.00,375.68 329.81,376.59 329.15,376.81 C329.75,376.41 330.00,375.37 330.00,373.50 ZM 251.28 367.97 C252.33,368.15 253.02,368.17 253.71,368.03 C252.91,368.26 252.37,368.24 251.28,367.97 ZM 329.08 367.44 C328.00,367.54 327.35,367.71 326.94,368.14 C327.29,367.65 327.93,367.52 329.08,367.44 ZM 236.38 370.42 C236.20,370.32 235.99,370.25 235.75,370.20 C235.12,370.07 234.70,370.13 234.43,370.50 C234.70,370.13 235.12,370.07 235.75,370.19 C235.98,370.24 236.19,370.31 236.38,370.42 ZM 348.47 367.47 C349.01,367.94 349.08,368.88 349.16,370.75 C349.08,368.88 349.00,367.94 348.47,367.47 ZM 345.37 367.00 C345.06,367.00 344.76,367.01 344.47,367.02 C344.71,367.01 344.96,367.00 345.19,367.00 Z" fill="rgb(192,234,217)"/>
<path d="M 268.43 229.87 C267.06,227.21 264.15,218.84 263.44,215.50 C261.94,208.42 255.42,187.88 253.40,183.88 C252.63,182.34 251.99,181.69 250.75,181.56 C253.99,181.78 256.10,183.65 257.03,187.12 C257.59,189.21 258.43,191.15 258.88,191.43 C259.34,191.71 260.26,194.77 260.93,198.22 C263.17,209.85 264.07,213.18 265.62,215.54 C266.47,216.84 266.90,218.75 266.57,219.79 C266.21,220.92 266.74,222.68 267.88,224.12 C268.94,225.46 270.81,226.64 272.05,226.73 C273.62,226.85 273.98,226.58 273.25,225.85 C272.51,225.11 272.83,223.25 274.31,219.65 C275.47,216.82 276.78,214.35 277.21,214.17 C278.44,213.65 278.14,201.19 276.79,196.69 C275.89,193.69 275.87,192.54 276.72,192.26 C278.26,191.75 276.38,186.36 274.38,185.59 C272.17,184.75 269.65,178.12 270.95,176.56 C271.71,175.65 271.42,174.64 269.90,172.90 C268.74,171.58 266.91,168.62 265.82,166.31 C264.50,163.51 263.36,162.31 262.41,162.67 C261.30,163.10 261.17,162.72 261.82,160.95 C263.29,156.99 261.95,154.13 256.88,150.41 C254.20,148.44 252.00,146.42 252.00,145.91 C252.00,145.41 250.99,145.00 249.75,145.00 C247.32,145.01 238.00,152.83 238.00,154.86 C238.00,155.54 237.10,157.96 236.00,160.24 C234.90,162.51 234.00,165.02 234.00,165.80 C234.00,166.59 233.14,168.86 232.09,170.86 C231.04,172.86 229.64,176.61 228.97,179.20 C228.31,181.78 226.92,184.67 225.88,185.60 C224.85,186.54 223.97,188.48 223.92,189.90 C223.88,191.33 222.62,196.32 221.12,201.00 C219.05,207.43 217.98,209.47 216.69,209.36 C215.76,209.28 215.00,209.62 215.00,210.11 C215.00,210.60 208.50,211.00 200.55,211.00 C192.31,211.00 185.07,211.47 183.72,212.08 C181.35,213.16 178.39,219.20 179.42,220.86 C179.71,221.34 181.77,222.03 183.98,222.38 C186.19,222.73 188.01,223.58 188.02,224.26 C188.02,224.33 188.02,224.38 188.02,224.44 C181.99,224.12 179.48,223.48 178.55,221.90 C177.87,220.75 178.03,219.09 178.26,216.70 L 178.26 216.68 C178.52,213.99 179.35,211.39 180.11,210.91 C180.88,210.43 188.98,210.02 198.13,210.02 C210.25,210.00 215.01,209.66 215.70,208.75 C216.21,208.06 218.15,202.78 220.01,197.01 C221.86,191.25 226.15,179.75 229.53,171.46 C232.92,163.17 235.98,155.20 236.35,153.76 C236.71,152.32 238.52,149.53 240.37,147.57 C243.21,144.55 244.40,144.00 248.03,144.00 C253.43,144.00 260.05,147.73 262.74,152.28 C263.82,154.11 266.16,159.63 267.94,164.55 C269.73,169.47 271.75,174.62 272.43,176.00 C273.12,177.38 274.50,181.20 275.50,184.50 C276.50,187.80 278.03,191.60 278.91,192.95 C280.03,194.68 280.50,197.79 280.50,203.45 C280.50,210.64 280.03,212.65 276.14,222.25 C273.74,228.16 271.39,233.00 270.92,233.00 C270.44,233.00 269.32,231.59 268.43,229.87 ZM 188.68 224.47 C188.71,224.43 188.74,224.39 188.77,224.34 C189.26,223.57 195.82,222.99 208.50,222.59 L 227.50 221.99 L 228.12 219.00 C228.84,215.56 230.70,213.00 232.48,213.00 C233.34,213.00 233.57,211.58 233.24,208.19 C232.73,202.84 235.62,194.90 238.75,193.08 C239.71,192.52 239.99,192.05 239.37,192.03 C237.96,191.99 240.24,184.93 242.78,181.43 C244.68,178.82 247.00,178.23 247.00,180.36 C247.00,181.16 247.94,181.66 249.25,181.56 C249.50,181.55 249.74,181.54 249.97,181.53 C249.67,181.54 249.33,181.57 248.96,181.62 C247.25,181.82 245.50,182.19 245.08,182.45 C244.09,183.07 237.86,199.27 234.67,209.55 C233.29,213.98 231.17,219.29 229.95,221.36 L 227.73 225.13 L 204.51 224.82 C197.62,224.72 192.49,224.65 188.68,224.47 ZM 229.00 376.00 C229.00,375.45 228.55,375.00 228.00,375.00 C226.71,375.00 226.69,370.31 227.98,369.51 C229.20,368.76 227.02,365.00 225.37,365.00 C223.14,365.00 222.77,369.91 224.56,375.75 C224.61,375.93 224.72,376.09 224.87,376.24 C224.59,376.11 224.36,375.96 224.20,375.80 C223.27,374.87 222.73,374.87 221.80,375.80 C220.77,376.83 219.92,377.22 219.28,376.98 C219.35,376.99 219.42,377.00 219.50,377.00 C220.63,377.00 221.00,375.78 221.00,372.00 C221.00,368.22 220.63,367.00 219.50,367.00 C218.37,367.00 218.00,368.22 218.00,372.00 C218.00,373.16 218.03,374.07 218.11,374.79 C218.04,374.28 218.00,373.68 218.00,373.00 C218.00,367.77 215.38,367.46 214.42,372.58 C214.32,373.10 214.17,373.59 213.99,374.05 C214.25,373.01 214.52,371.62 214.87,369.75 C215.53,366.13 215.44,365.00 214.48,365.00 C213.78,365.00 212.93,366.12 212.59,367.50 C211.81,370.61 210.25,370.75 209.82,367.75 C209.41,364.85 205.68,364.65 205.17,367.50 C204.51,371.14 203.05,371.50 202.39,368.19 C202.01,366.32 201.13,365.00 200.26,365.00 C200.19,365.00 200.11,365.00 200.04,365.01 C201.60,364.62 205.27,364.58 208.50,364.98 C209.60,365.11 215.74,364.94 222.15,364.58 C226.87,364.32 229.81,364.23 231.73,364.34 C231.17,364.99 231.00,366.71 231.00,370.50 C231.00,374.59 231.21,376.30 231.89,376.82 C230.72,377.00 229.27,377.03 227.93,376.91 C228.55,376.79 229.00,376.49 229.00,376.00 ZM 306.00 367.20 L 302.69 367.20 C303.51,367.07 304.96,366.58 306.61,365.85 C309.15,364.73 312.30,364.02 313.62,364.27 C314.94,364.52 317.85,364.39 320.09,363.98 C323.61,363.34 324.47,363.57 326.59,365.68 C327.48,366.57 328.31,367.15 329.09,367.44 L 329.08 367.44 C327.93,367.52 327.29,367.65 326.94,368.14 C326.47,368.63 326.32,369.45 326.18,370.89 C325.93,373.50 326.12,375.25 326.79,376.18 C325.77,375.73 324.78,375.81 323.47,376.42 C323.86,375.74 324.00,374.37 324.00,371.92 C324.00,365.31 321.63,365.66 321.20,372.33 C320.98,375.66 321.17,376.78 322.11,376.97 C320.77,377.34 318.98,377.45 317.64,377.20 C315.91,376.88 313.26,376.64 311.75,376.66 C311.33,376.67 310.98,376.67 310.68,376.64 C311.20,376.16 311.73,374.76 312.07,372.42 C312.53,369.25 312.78,368.88 313.40,370.50 C315.57,376.20 316.08,377.00 317.48,377.00 C319.28,377.00 319.29,376.90 318.00,373.50 C317.22,371.46 317.35,370.51 318.55,369.31 C319.95,367.91 319.89,367.61 317.92,366.23 C315.95,364.85 315.65,364.87 314.82,366.36 C314.18,367.51 313.15,367.82 311.45,367.40 C309.09,366.80 309.00,366.97 309.00,371.97 C309.00,374.18 309.27,375.64 309.66,376.35 C309.08,375.93 309.00,374.99 309.00,372.96 C309.00,370.55 308.46,369.01 307.50,368.64 C306.30,368.18 306.00,368.97 306.00,372.53 ZM 339.33 375.43 C339.34,375.45 339.35,375.48 339.36,375.50 C339.70,376.39 341.21,377.00 343.09,377.00 L 343.16 377.00 C345.50,377.00 345.97,377.18 345.30,378.12 C345.22,378.23 345.12,378.35 345.01,378.49 L 345.00 378.50 C344.32,379.33 343.11,380.00 342.32,380.00 C341.53,380.00 341.16,380.45 341.50,381.00 C341.51,381.01 341.51,381.02 341.52,381.03 C341.34,380.88 341.16,380.70 341.00,380.50 C340.32,379.67 339.14,379.00 338.38,379.00 C337.62,379.00 337.00,378.55 337.00,378.00 C337.00,377.45 335.91,377.00 334.58,377.00 C333.25,377.00 331.94,376.44 331.66,375.75 C331.28,374.81 330.89,374.87 330.11,376.00 C329.69,376.60 329.30,376.91 328.83,376.96 C328.95,376.93 329.05,376.88 329.15,376.81 C329.81,376.59 330.00,375.68 330.00,373.57 C330.00,371.47 330.56,370.24 331.22,369.96 C332.01,369.65 332.94,370.69 333.19,373.17 C333.41,375.48 334.05,376.64 334.68,376.66 C335.36,377.25 336.00,377.07 336.00,375.58 C336.00,373.96 337.70,373.60 338.76,374.58 C338.92,374.90 339.12,375.18 339.33,375.43 ZM 297.57 375.95 C297.14,375.77 296.75,375.57 296.44,375.37 C294.20,373.90 293.78,373.89 292.22,375.27 C291.97,375.50 291.64,375.70 291.24,375.88 C292.06,374.71 292.73,372.44 293.41,368.75 C293.76,366.79 293.57,365.56 293.10,365.09 C297.47,365.44 302.00,366.35 302.00,367.07 C302.00,367.13 302.03,367.17 302.09,367.19 C297.61,367.22 296.00,368.47 296.00,371.92 C296.00,373.85 296.47,375.15 297.57,375.95 ZM 241.65 230.80 C242.48,228.77 243.30,226.35 244.11,223.50 C247.61,211.23 249.44,211.04 250.25,222.84 C250.46,225.83 250.91,228.96 251.40,231.04 C251.01,229.60 250.64,227.79 250.42,226.12 C249.82,221.55 249.46,220.93 247.62,221.20 C246.08,221.42 244.84,223.17 243.01,227.71 C242.60,228.71 242.14,229.77 241.65,230.80 ZM 160.36 373.01 C159.16,373.10 157.77,373.62 157.13,374.25 C156.12,375.25 155.58,375.11 154.43,373.56 C153.64,372.49 153.00,370.83 153.00,369.88 C153.00,367.69 156.63,366.45 158.50,368.00 C160.22,369.43 162.01,368.56 161.33,367.05 C161.89,368.24 160.98,369.00 158.83,369.00 C156.72,369.00 156.48,370.08 158.20,371.80 C158.90,372.50 159.66,372.89 160.36,373.01 ZM 266.69 366.62 C266.10,368.39 266.31,371.67 267.56,375.75 C267.61,375.91 267.68,376.06 267.78,376.20 C267.66,376.12 267.55,376.04 267.44,375.95 C266.29,374.99 265.63,374.97 264.76,375.84 C264.56,376.04 264.30,376.21 264.00,376.36 L 264.00 372.00 C264.00,368.32 263.62,367.00 262.56,367.00 C262.40,367.00 262.25,367.04 262.11,367.12 C262.73,366.68 263.66,366.36 265.09,365.98 C265.97,365.74 266.68,365.57 267.28,365.48 C267.03,365.74 266.83,366.12 266.69,366.62 ZM 179.00 375.22 C179.00,372.84 181.90,368.82 183.08,369.55 C183.61,369.87 183.76,370.58 183.43,371.11 C183.10,371.65 183.55,373.19 184.44,374.54 C185.41,376.03 186.96,376.86 188.49,376.96 C187.19,377.04 185.96,376.74 185.50,376.00 C185.16,375.45 183.78,375.00 182.44,375.00 C181.10,375.00 180.00,375.45 180.00,376.00 C180.00,376.55 179.10,377.00 178.00,377.00 C177.90,377.00 177.79,376.99 177.69,376.99 C178.43,376.87 179.00,376.12 179.00,375.22 ZM 283.94 243.15 C285.07,240.03 286.31,236.50 287.67,232.50 L 291.08 222.50 L 312.44 222.80 C314.85,222.84 317.24,222.86 319.52,222.86 C317.83,222.88 316.09,222.89 314.33,222.90 L 293.16 223.00 L 291.07 226.39 C289.92,228.25 287.90,232.64 286.58,236.14 C285.87,238.01 284.90,240.58 283.94,243.15 ZM 175.23 375.60 C175.01,375.94 174.27,376.33 173.30,376.66 C173.87,376.13 174.00,374.86 174.00,372.01 C174.00,368.47 173.94,367.44 172.85,367.18 C174.12,367.19 175.41,367.23 176.61,367.30 C176.03,367.75 176.00,368.99 176.00,371.93 C176.00,374.79 176.20,376.21 176.78,376.74 C176.30,376.51 175.99,376.15 175.98,375.75 C175.97,374.89 175.74,374.84 175.23,375.60 ZM 234.00 373.43 C234.00,371.85 234.10,370.95 234.43,370.50 C234.70,370.13 235.12,370.07 235.75,370.20 C235.99,370.25 236.20,370.32 236.38,370.42 C236.59,370.54 236.78,370.71 236.93,370.93 C237.26,371.44 237.37,372.22 237.29,373.32 C237.19,374.70 237.55,375.75 238.18,376.33 C237.91,376.22 237.62,376.07 237.30,375.90 C235.24,374.80 234.58,374.77 234.25,375.75 C234.17,376.00 233.91,376.21 233.53,376.38 C233.85,375.82 234.00,374.86 234.00,373.43 ZM 286.82 101.56 C281.48,96.58 275.26,93.05 267.08,89.76 C269.66,90.60 272.41,91.19 273.85,91.15 C276.22,91.08 277.34,91.56 277.68,92.78 C277.95,93.72 280.37,96.22 283.08,98.32 C284.36,99.32 285.60,100.39 286.82,101.56 ZM 279.17 365.22 C279.71,365.20 280.38,365.21 281.20,365.19 C282.32,365.16 283.68,365.13 285.02,365.09 C284.29,365.48 283.66,366.45 283.35,368.00 C283.02,369.65 282.41,371.00 282.00,371.00 C281.59,371.00 280.98,369.65 280.65,368.00 C280.38,366.64 279.84,365.64 279.17,365.22 ZM 284.39 373.81 C285.05,370.50 286.51,370.86 287.16,374.49 C287.32,375.35 287.93,376.17 288.65,376.58 C287.55,376.75 286.26,376.85 284.82,376.87 C283.92,376.88 283.17,376.88 282.53,376.87 C283.53,376.57 284.01,375.71 284.39,373.81 ZM 206.00 374.56 C206.00,370.88 207.93,370.42 208.64,373.93 C209.06,376.07 209.83,377.00 211.16,377.00 C211.32,377.00 211.48,377.00 211.63,376.99 C210.60,377.62 209.46,377.74 208.50,377.14 C208.06,376.86 206.80,376.62 205.46,376.53 C205.84,376.15 206.00,375.52 206.00,374.56 ZM 299.69 374.35 C298.15,372.81 299.04,370.00 301.07,370.00 C302.63,370.00 303.06,370.54 302.82,372.17 C302.49,374.43 300.88,375.55 299.69,374.35 ZM 167.69 374.35 C166.15,372.81 167.04,370.00 169.07,370.00 C170.63,370.00 171.06,370.54 170.82,372.17 C170.49,374.43 168.88,375.55 167.69,374.35 ZM 341.62 373.46 C340.59,370.76 340.90,370.00 343.07,370.00 C344.63,370.00 345.06,370.54 344.82,372.17 C344.42,374.86 342.46,375.65 341.62,373.46 ZM 286.49 365.04 C287.45,365.02 288.32,364.99 289.00,364.97 C289.97,364.94 291.05,364.96 292.16,365.03 C291.54,365.39 290.83,366.45 290.26,368.25 L 289.23 371.50 L 288.49 368.25 C288.09,366.50 287.32,365.43 286.49,365.04 ZM 245.62 373.45 C244.84,371.41 245.66,370.00 247.63,370.00 C248.61,370.00 249.03,370.76 248.82,372.17 C248.42,374.86 246.46,375.65 245.62,373.45 ZM 266.68 266.84 C269.60,267.36 273.39,265.30 276.05,261.36 C274.33,264.56 272.76,267.03 272.04,267.47 C271.05,268.09 268.70,267.69 266.68,266.84 ZM 239.08 367.76 C238.41,367.19 237.46,367.04 236.15,367.19 C234.09,367.43 233.57,367.11 233.79,365.75 C233.87,365.29 233.81,364.89 233.64,364.59 C234.43,364.78 234.93,365.07 235.33,365.47 C236.17,366.31 237.28,367.00 237.81,367.00 C238.30,367.00 239.20,367.59 239.86,368.34 C239.66,368.12 239.40,367.93 239.08,367.76 ZM 216.35 239.85 C216.40,239.80 216.45,239.75 216.49,239.72 C217.03,239.30 220.58,239.22 224.52,239.51 C220.74,239.54 217.59,239.68 216.35,239.85 ZM 340.39 219.36 C340.46,218.64 340.45,217.69 340.43,216.42 C340.42,215.28 340.29,214.12 340.04,212.89 C340.68,215.57 340.80,217.77 340.39,219.36 ZM 235.12 239.15 L 235.12 239.15 C236.42,238.65 237.61,237.70 238.73,236.23 C238.61,236.41 238.50,236.57 238.39,236.71 C237.34,238.10 236.75,238.80 235.12,239.15 ZM 172.08 377.00 C172.10,377.00 172.12,377.00 172.14,377.00 C171.71,377.11 171.25,377.20 170.80,377.28 C170.13,377.38 169.55,377.44 169.01,377.45 C169.82,377.20 171.13,377.00 172.08,377.00 ZM 259.71 87.41 C256.93,86.90 253.69,86.79 247.95,86.79 C247.53,86.79 247.13,86.79 246.74,86.79 L 244.56 86.80 C245.57,86.78 246.70,86.78 247.95,86.78 C256.24,86.76 259.44,87.02 263.07,88.27 C261.93,87.90 260.86,87.62 259.71,87.41 ZM 166.50 367.51 C163.83,367.97 163.00,368.85 163.00,370.58 C163.00,368.73 163.65,368.03 165.75,367.64 C165.98,367.59 166.24,367.55 166.50,367.51 ZM 163.00 370.58 C163.00,372.11 162.64,372.76 161.54,372.94 C162.40,372.66 163.00,371.84 163.00,370.58 ZM 270.78 378.24 C271.51,377.83 271.92,377.31 271.97,376.94 C271.99,376.98 272.00,377.02 272.00,377.06 C272.00,377.53 271.62,377.92 270.78,378.24 ZM 258.29 251.97 C260.35,257.62 262.57,263.15 263.53,264.67 C263.51,264.65 263.50,264.63 263.48,264.61 C262.60,263.27 260.37,257.69 258.29,251.97 ZM 338.00 222.09 C337.84,222.14 337.55,222.18 337.15,222.23 C337.86,222.04 338.42,221.88 338.87,221.71 C338.61,221.87 338.32,222.00 338.00,222.09 ZM 279.41 376.24 C278.95,375.81 278.79,375.11 278.57,373.96 C278.13,371.68 277.78,370.00 277.57,368.76 L 278.58 374.00 C278.78,375.05 279.03,375.77 279.41,376.24 ZM 347.32 380.20 C346.37,381.24 345.27,381.82 344.20,381.92 C345.29,381.75 346.46,381.15 347.32,380.20 ZM 160.90 366.38 C159.95,365.27 157.69,364.83 155.55,364.99 C157.70,364.82 159.96,365.24 160.87,366.34 C160.88,366.36 160.89,366.37 160.90,366.38 ZM 266.88 379.02 C264.82,379.26 262.07,379.43 258.51,379.56 C261.62,379.45 264.66,379.25 266.88,379.02 ZM 182.14 368.01 C182.44,368.10 182.66,368.20 182.79,368.30 C183.13,368.56 183.44,368.72 183.75,368.77 C183.43,368.74 183.11,368.60 182.79,368.37 C182.63,368.25 182.40,368.13 182.14,368.01 ZM 261.64 367.53 C261.25,368.05 260.96,368.93 260.83,370.08 C260.96,368.87 261.15,368.10 261.64,367.53 ZM 337.14 369.34 C336.66,369.26 336.14,368.99 335.45,368.54 C335.30,368.45 335.14,368.36 334.95,368.27 C334.87,368.21 334.77,368.14 334.68,368.08 C334.86,368.17 335.04,368.28 335.20,368.38 C336.04,368.93 336.62,369.24 337.14,369.34 ZM 240.57 376.61 C240.85,376.48 241.14,376.30 241.42,376.06 C242.06,375.54 242.55,375.34 242.95,375.48 L 242.95 375.49 C242.55,375.35 242.03,375.56 241.38,376.10 C241.10,376.33 240.84,376.50 240.57,376.61 ZM 199.56 365.18 C199.40,365.29 199.29,365.46 199.23,365.71 C199.25,365.51 199.30,365.37 199.36,365.31 C199.41,365.26 199.47,365.22 199.56,365.18 ZM 240.53 369.06 C241.27,369.69 241.89,369.46 243.59,368.35 C241.87,369.47 241.27,369.70 240.53,369.06 ZM 206.53 264.40 C207.86,261.14 209.17,257.85 210.39,254.67 C209.18,257.82 207.87,261.12 206.53,264.40 ZM 256.31 376.20 C255.69,375.95 255.15,375.64 254.75,375.27 C255.13,375.61 255.67,375.93 256.31,376.20 Z" fill="rgb(228,251,243)"/>
<path d="M 335.63 381.56 C334.27,379.49 331.00,378.43 331.00,380.06 C331.00,381.28 327.81,382.09 326.62,381.16 C325.29,380.13 307.20,380.37 301.59,381.50 C298.41,382.14 297.44,381.95 296.39,380.52 C295.51,379.32 294.51,378.99 293.30,379.51 C292.31,379.93 288.72,380.45 285.33,380.66 C279.75,381.02 278.90,380.81 276.58,378.48 C275.16,377.07 274.00,375.45 274.00,374.89 C274.00,374.32 273.11,374.15 272.00,374.50 C270.38,375.01 270.00,374.68 270.00,372.77 C270.00,371.47 270.51,369.89 271.14,369.26 C271.98,368.42 271.86,367.72 270.66,366.52 C269.33,365.18 268.38,365.09 265.09,365.98 C261.62,366.91 261.08,367.45 260.81,370.27 C260.38,374.72 257.61,374.64 257.18,370.17 C256.92,367.50 256.53,366.98 255.18,367.54 C253.25,368.34 252.54,368.33 248.75,367.42 C246.97,367.00 245.16,367.32 243.59,368.35 C241.48,369.73 241.03,369.74 239.97,368.46 C239.30,367.66 238.33,367.00 237.81,367.00 C237.28,367.00 236.17,366.31 235.33,365.47 C234.05,364.20 231.87,364.05 222.15,364.58 C215.74,364.94 209.60,365.11 208.50,364.98 C204.58,364.50 200.01,364.66 199.36,365.31 C199.00,365.67 199.34,368.34 200.12,371.23 C201.43,376.09 201.77,376.50 204.52,376.50 C206.16,376.51 207.95,376.79 208.50,377.14 C210.68,378.51 213.75,376.15 214.42,372.58 C215.38,367.46 218.00,367.77 218.00,373.00 C218.00,377.12 219.43,378.17 221.80,375.80 C222.73,374.87 223.27,374.87 224.20,375.80 C225.80,377.40 233.71,377.36 234.25,375.75 C234.58,374.77 235.24,374.80 237.30,375.90 C239.36,377.00 240.25,377.04 241.38,376.10 C242.36,375.29 243.03,375.24 243.47,375.95 C244.55,377.71 250.79,377.20 251.87,375.27 C252.79,373.63 252.94,373.63 254.75,375.27 C256.92,377.23 263.02,377.58 264.76,375.84 C265.63,374.97 266.29,374.99 267.44,375.95 C268.29,376.65 269.66,376.96 270.49,376.64 C272.62,375.83 272.38,377.63 270.25,378.49 C269.29,378.88 264.01,379.36 258.51,379.56 C253.02,379.76 248.40,380.30 248.25,380.76 C248.09,381.22 245.16,381.33 241.73,381.00 C234.41,380.29 223.19,380.54 220.88,381.46 C219.96,381.83 218.57,381.42 217.65,380.51 C216.37,379.22 215.62,379.13 213.91,380.05 C212.73,380.68 210.36,380.92 208.64,380.59 C206.91,380.25 204.38,379.86 203.00,379.72 C199.52,379.36 198.00,378.21 198.00,375.94 C198.00,373.02 196.14,373.59 192.41,377.67 C189.13,381.25 188.96,381.31 185.27,380.12 C182.69,379.29 180.05,379.19 176.91,379.80 C174.38,380.28 170.04,380.39 167.26,380.03 C164.47,379.68 161.31,379.71 160.22,380.11 C159.13,380.52 156.50,380.45 154.37,379.97 C146.18,378.13 143.27,369.57 148.92,363.92 C152.05,360.80 155.07,360.29 159.68,362.12 C163.15,363.49 193.34,363.93 197.50,362.67 C199.15,362.17 204.55,361.60 209.50,361.40 C214.45,361.20 221.43,360.88 225.00,360.69 C229.89,360.43 232.45,360.81 235.31,362.22 C239.36,364.22 253.47,364.97 259.50,363.51 C261.15,363.11 265.28,362.72 268.67,362.64 C272.06,362.56 275.17,362.17 275.57,361.76 C275.98,361.36 277.99,361.29 280.05,361.62 C282.10,361.95 284.60,361.77 285.59,361.21 C286.81,360.53 288.23,360.53 289.95,361.21 C293.39,362.58 311.00,363.11 311.00,361.84 C311.00,361.31 312.69,361.05 314.75,361.27 C316.81,361.49 319.42,361.34 320.54,360.94 C321.67,360.54 324.33,360.82 326.54,361.59 C328.72,362.35 331.65,362.98 333.05,362.98 C334.45,362.99 336.13,363.53 336.77,364.17 C337.67,365.07 338.55,365.07 340.52,364.17 C345.76,361.78 347.18,362.53 355.00,371.83 C356.38,373.47 357.45,375.30 357.40,375.90 C357.35,376.51 357.23,377.67 357.15,378.50 C357.06,379.42 355.97,380.00 354.33,380.00 C352.86,380.00 350.80,380.78 349.75,381.72 C348.51,382.85 345.97,383.51 342.47,383.61 C337.91,383.75 336.86,383.44 335.63,381.56 ZM 347.32 380.20 C349.08,378.25 349.40,376.58 349.16,370.75 C349.00,367.10 348.90,367.00 345.19,367.00 C343.10,367.00 340.51,367.65 339.44,368.44 C337.75,369.69 337.20,369.68 335.20,368.38 C333.94,367.56 332.04,367.17 330.97,367.51 C329.67,367.92 328.23,367.32 326.59,365.68 C324.47,363.57 323.61,363.34 320.09,363.98 C317.85,364.39 314.94,364.52 313.62,364.27 C312.30,364.02 309.15,364.73 306.61,365.85 C304.07,366.97 302.00,367.52 302.00,367.07 C302.00,366.11 293.98,364.81 289.00,364.97 C287.08,365.03 283.57,365.13 281.20,365.19 C276.45,365.32 276.73,364.39 278.57,373.96 C279.13,376.84 279.31,376.92 284.82,376.87 C288.45,376.83 291.12,376.26 292.22,375.27 C293.78,373.89 294.20,373.90 296.44,375.37 C297.81,376.27 300.52,377.00 302.46,377.00 C305.98,377.00 306.00,376.98 306.00,372.53 C306.00,368.97 306.30,368.18 307.50,368.64 C308.46,369.01 309.00,370.55 309.00,372.96 C309.00,376.40 309.23,376.71 311.75,376.66 C313.26,376.64 315.91,376.88 317.64,377.20 C319.37,377.53 321.85,377.25 323.14,376.58 C324.84,375.71 326.00,375.67 327.28,376.44 C328.63,377.24 329.31,377.14 330.11,376.00 C330.89,374.87 331.28,374.81 331.66,375.75 C331.94,376.44 333.25,377.00 334.58,377.00 C335.91,377.00 337.00,377.45 337.00,378.00 C337.00,378.55 337.62,379.00 338.38,379.00 C339.14,379.00 340.32,379.67 341.00,380.50 C342.68,382.52 345.34,382.39 347.32,380.20 ZM 175.23 375.60 C175.74,374.84 175.97,374.89 175.98,375.75 C175.99,376.44 176.90,377.00 178.00,377.00 C179.10,377.00 180.00,376.55 180.00,376.00 C180.00,375.45 181.10,375.00 182.44,375.00 C183.78,375.00 185.16,375.45 185.50,376.00 C186.44,377.52 190.59,377.20 192.00,375.50 C192.68,374.67 192.95,374.00 192.59,374.00 C192.23,374.00 192.39,373.13 192.96,372.07 C194.92,368.41 188.33,365.07 185.24,368.16 C184.45,368.95 183.68,369.00 182.79,368.30 C181.40,367.21 170.26,366.78 165.75,367.64 C163.65,368.03 163.00,368.73 163.00,370.58 C163.00,373.24 160.32,373.92 158.20,371.80 C156.48,370.08 156.72,369.00 158.83,369.00 C161.37,369.00 162.19,367.93 160.87,366.34 C159.10,364.21 152.27,364.63 151.04,366.93 C147.45,373.63 154.66,380.33 160.12,375.39 C161.77,373.90 162.10,373.93 164.50,375.82 C166.48,377.38 167.97,377.72 170.80,377.28 C172.83,376.95 174.83,376.20 175.23,375.60 ZM 326.00 350.00 C326.00,349.39 325.59,349.14 325.09,349.45 C324.58,349.76 324.01,349.54 323.82,348.96 C323.63,348.38 322.46,347.84 321.24,347.74 C318.64,347.55 318.41,346.74 320.45,345.04 C321.61,344.08 322.42,344.21 324.41,345.67 C327.32,347.80 328.31,349.69 326.96,350.53 C326.43,350.85 326.00,350.61 326.00,350.00 ZM 236.00 349.22 C236.00,348.80 237.35,347.26 239.00,345.81 C240.65,344.37 242.00,343.53 242.00,343.97 C242.00,344.40 241.32,345.32 240.50,346.00 C239.68,346.68 239.00,347.86 239.00,348.62 C239.00,349.38 238.32,350.00 237.50,350.00 C236.68,350.00 236.00,349.65 236.00,349.22 ZM 202.57 342.68 C201.58,341.95 200.63,340.13 200.46,338.62 C200.20,336.20 200.35,336.04 201.83,337.19 C204.91,339.60 206.96,342.25 206.42,343.13 C205.67,344.34 204.68,344.22 202.57,342.68 ZM 308.57 342.43 C307.71,341.56 307.01,340.10 307.02,339.18 C307.02,338.13 307.31,337.91 307.77,338.60 C308.17,339.20 309.50,339.62 310.72,339.52 C314.37,339.22 315.84,340.78 313.56,342.52 C311.12,344.38 310.52,344.37 308.57,342.43 ZM 216.50 338.03 C216.50,334.50 216.88,333.36 218.09,333.27 C220.30,333.10 220.21,341.71 218.00,342.29 C216.83,342.60 216.50,341.67 216.50,338.03 ZM 242.00 338.50 C242.00,334.74 242.04,334.69 244.42,335.61 C246.52,336.41 246.41,337.59 244.00,340.00 L 242.00 342.00 L 242.00 338.50 ZM 146.37 336.75 C146.70,335.51 146.98,334.16 146.99,333.75 C146.99,333.34 147.62,333.00 148.38,333.00 C150.32,333.00 151.09,337.75 149.27,338.45 C146.57,339.49 145.76,339.01 146.37,336.75 ZM 339.00 335.00 C338.00,334.35 337.92,334.03 338.75,334.02 C339.44,334.01 340.00,332.88 340.00,331.50 C340.00,328.14 341.52,328.34 343.32,331.93 C344.60,334.51 344.60,334.94 343.31,335.43 C341.33,336.19 340.76,336.14 339.00,335.00 ZM 332.61 327.42 C331.81,325.34 331.80,325.35 333.25,325.20 C333.94,325.12 335.79,324.85 337.36,324.60 C338.94,324.36 340.85,324.39 341.61,324.68 C343.88,325.55 343.19,327.00 340.50,327.00 C339.12,327.00 338.00,326.55 338.00,326.00 C338.00,325.45 337.50,325.00 336.89,325.00 C336.28,325.00 336.03,325.64 336.33,326.42 C336.63,327.20 336.19,328.10 335.36,328.42 C333.29,329.21 333.29,329.21 332.61,327.42 ZM 170.00 308.97 C162.74,308.11 149.95,302.25 147.43,298.63 C146.62,297.46 144.05,293.58 141.73,290.00 L 137.50 283.50 L 137.51 270.00 L 137.52 256.50 L 141.66 248.00 C149.20,232.48 152.19,225.53 152.63,222.50 C153.50,216.44 154.20,214.41 156.97,210.00 C158.53,207.52 161.00,202.13 162.47,198.00 C163.94,193.88 165.78,190.14 166.57,189.70 C167.36,189.26 168.00,187.91 168.00,186.70 C168.00,185.49 169.31,182.02 170.90,179.00 C172.49,175.98 175.23,169.23 176.99,164.00 C178.75,158.77 180.73,153.82 181.40,153.00 C182.07,152.18 183.66,148.12 184.93,144.00 C186.21,139.88 188.31,134.83 189.61,132.79 C190.91,130.76 192.39,127.20 192.91,124.90 C193.43,122.59 194.28,120.44 194.79,120.10 C195.31,119.77 196.97,116.87 198.49,113.65 C201.52,107.20 208.25,98.97 213.87,94.82 C215.87,93.35 221.27,90.27 225.87,87.99 C232.55,84.67 235.68,83.72 241.38,83.29 C248.54,82.75 265.57,84.46 267.48,85.91 C268.04,86.34 270.67,87.28 273.32,87.99 C276.16,88.76 279.54,90.66 281.55,92.61 C283.43,94.44 286.31,96.63 287.96,97.48 C290.88,98.99 299.02,110.27 300.43,114.75 C300.82,115.99 301.48,117.00 301.91,117.00 C302.85,117.00 305.00,121.54 305.00,123.53 C305.00,124.32 306.32,127.11 307.92,129.73 C309.53,132.36 311.17,135.85 311.56,137.50 C311.94,139.15 313.04,141.40 313.98,142.50 C314.93,143.60 316.96,148.50 318.48,153.38 C320.01,158.26 322.12,163.12 323.17,164.17 C325.40,166.40 326.83,169.82 327.41,174.31 C327.93,178.34 329.57,182.61 330.91,183.44 C331.48,183.80 332.49,185.98 333.17,188.29 C334.49,192.83 337.74,198.60 340.61,201.46 C341.67,202.53 342.76,205.89 343.33,209.87 C344.65,219.13 344.53,221.76 342.68,223.80 C341.23,225.40 339.26,225.55 323.29,225.30 C304.62,225.02 304.57,225.02 299.00,225.35 C294.20,225.64 293.24,226.43 291.85,231.29 C291.19,233.61 290.27,236.00 289.81,236.62 C289.35,237.24 288.25,240.16 287.37,243.12 C286.49,246.08 284.53,250.98 283.02,254.00 C281.50,257.02 279.93,260.62 279.52,262.00 C278.11,266.73 274.03,270.00 269.56,269.99 C267.33,269.98 264.56,269.72 263.40,269.41 C261.21,268.82 258.52,263.60 255.41,253.90 C254.46,250.93 252.85,247.31 251.84,245.85 C250.83,244.39 249.98,241.91 249.96,240.35 C249.91,237.32 247.79,228.46 246.90,227.57 C246.61,227.27 245.79,229.31 245.07,232.09 C244.34,234.95 243.07,237.42 242.14,237.77 C241.24,238.11 239.91,238.98 239.18,239.69 C238.38,240.49 235.24,241.03 231.18,241.08 C220.93,241.19 217.93,242.66 215.83,248.58 C214.87,251.28 214.06,254.56 214.04,255.85 C214.02,257.14 213.18,259.39 212.18,260.85 C209.34,264.97 206.00,271.89 206.00,273.64 C206.00,274.52 205.12,276.86 204.05,278.86 C202.98,280.86 201.20,284.56 200.10,287.08 C197.75,292.48 189.39,302.74 186.64,303.61 C185.58,303.95 183.44,305.53 181.89,307.11 C180.34,308.70 178.49,309.94 177.78,309.87 C177.08,309.80 173.57,309.39 170.00,308.97 ZM 184.54 300.96 C187.88,298.43 192.30,293.79 194.58,290.39 C198.04,285.25 209.24,258.90 214.09,244.50 C214.83,242.30 215.60,240.27 215.80,240.00 C216.01,239.73 220.70,239.50 226.23,239.50 C236.06,239.50 236.32,239.44 238.39,236.71 C239.55,235.17 241.63,231.12 243.01,227.71 C244.84,223.17 246.08,221.42 247.62,221.20 C249.46,220.93 249.82,221.55 250.42,226.12 C250.80,228.99 251.62,232.28 252.23,233.42 C252.85,234.57 253.68,237.07 254.09,239.00 C255.11,243.82 261.79,262.03 263.48,264.61 C264.83,266.66 270.36,268.51 272.04,267.47 C273.60,266.51 279.02,256.23 281.61,249.35 C283.02,245.58 285.26,239.64 286.58,236.14 C287.90,232.64 289.92,228.25 291.07,226.39 L 293.16 223.00 L 314.33 222.90 C325.97,222.85 336.62,222.48 338.00,222.09 C341.97,220.97 341.40,213.67 336.56,203.50 C334.47,199.10 331.67,192.64 330.35,189.15 C329.02,185.66 326.83,180.71 325.47,178.16 C324.11,175.60 323.00,173.17 323.00,172.74 C323.00,171.92 315.93,154.86 307.78,136.00 C299.22,116.22 292.07,105.31 283.08,98.32 C280.37,96.22 277.95,93.72 277.68,92.78 C277.34,91.56 276.22,91.08 273.85,91.15 C272.01,91.20 268.02,90.23 265.00,89.00 C260.38,87.11 257.65,86.76 247.95,86.78 C237.25,86.80 235.91,87.02 229.70,89.84 C213.35,97.25 204.23,107.25 195.94,126.86 C194.17,131.06 191.65,136.73 190.36,139.45 C189.06,142.17 188.00,144.98 188.00,145.69 C188.00,146.41 186.20,150.99 184.00,155.88 C181.80,160.77 180.00,165.27 180.00,165.90 C180.00,166.52 179.59,167.81 179.08,168.76 C176.83,173.03 171.00,186.30 171.00,187.17 C171.00,187.70 169.84,190.69 168.41,193.81 C166.99,196.94 165.21,200.85 164.46,202.50 C163.71,204.15 162.13,207.98 160.95,211.00 C155.55,224.84 153.19,230.76 151.76,234.00 C141.56,257.21 140.50,260.78 140.56,271.62 C140.62,281.67 140.65,281.79 144.80,288.78 C151.80,300.57 160.95,306.27 172.04,305.76 C178.03,305.48 179.08,305.08 184.54,300.96 ZM 311.75 305.68 C308.59,303.57 305.99,301.32 305.97,300.68 C305.96,300.03 304.41,298.38 302.53,297.00 C300.65,295.62 298.33,292.70 297.37,290.50 C296.41,288.30 294.88,285.60 293.95,284.50 C291.02,281.00 289.11,259.39 291.25,254.00 C291.58,253.18 292.83,249.35 294.04,245.50 C296.82,236.64 298.57,234.74 303.91,234.82 C306.18,234.85 308.91,235.15 309.98,235.49 C311.05,235.83 312.77,235.66 313.80,235.11 C314.83,234.55 321.71,234.03 329.09,233.95 C336.46,233.86 343.20,233.42 344.05,232.97 C347.72,231.02 356.48,241.05 358.63,249.66 C359.01,251.22 360.15,254.30 361.14,256.50 C363.92,262.63 363.60,273.51 360.33,284.21 L 357.66 292.94 L 350.08 298.75 C339.50,306.86 332.99,309.50 323.50,309.50 C318.21,309.50 316.82,309.05 311.75,305.68 ZM 338.55 302.88 C347.29,297.36 356.00,288.28 356.00,284.69 C356.00,284.02 356.95,281.71 358.10,279.55 C360.85,274.42 360.43,263.71 357.20,256.80 C355.99,254.22 355.00,251.88 355.00,251.59 C355.00,251.31 354.08,248.62 352.96,245.62 C351.32,241.23 350.31,239.96 347.81,239.08 C345.95,238.43 335.97,238.00 322.89,238.00 C298.13,238.00 300.94,236.92 296.89,248.00 C294.87,253.51 294.52,256.25 294.59,266.00 L 294.68 277.50 L 298.93 285.50 C303.66,294.39 304.80,295.87 310.33,300.25 C315.44,304.31 320.26,305.90 327.55,305.96 C332.66,305.99 334.39,305.51 338.55,302.88 ZM 267.88 224.12 C266.74,222.68 266.21,220.92 266.57,219.79 C266.90,218.75 266.47,216.84 265.62,215.54 C264.07,213.18 263.17,209.85 260.93,198.22 C260.26,194.77 259.34,191.71 258.88,191.43 C258.43,191.15 257.59,189.21 257.03,187.12 C255.96,183.14 253.34,181.27 249.25,181.56 C247.94,181.66 247.00,181.16 247.00,180.36 C247.00,178.23 244.68,178.82 242.78,181.43 C240.24,184.93 237.96,191.99 239.37,192.03 C239.99,192.05 239.71,192.52 238.75,193.08 C235.62,194.90 232.73,202.84 233.24,208.19 C233.57,211.58 233.34,213.00 232.48,213.00 C230.70,213.00 228.84,215.56 228.12,219.00 L 227.50 221.99 L 208.50 222.59 C195.82,222.99 189.26,223.57 188.77,224.34 C188.23,225.19 188.03,225.17 188.02,224.26 C188.01,223.58 186.19,222.73 183.98,222.38 C181.77,222.03 179.71,221.34 179.42,220.86 C178.39,219.20 181.35,213.16 183.72,212.08 C185.07,211.47 192.31,211.00 200.55,211.00 C208.50,211.00 215.00,210.60 215.00,210.11 C215.00,209.62 215.76,209.28 216.69,209.36 C217.98,209.47 219.05,207.43 221.12,201.00 C222.62,196.32 223.88,191.33 223.92,189.90 C223.97,188.48 224.85,186.54 225.88,185.60 C226.92,184.67 228.31,181.78 228.97,179.20 C229.64,176.61 231.04,172.86 232.09,170.86 C233.14,168.86 234.00,166.59 234.00,165.80 C234.00,165.02 234.90,162.51 236.00,160.24 C237.10,157.96 238.00,155.54 238.00,154.86 C238.00,152.83 247.32,145.01 249.75,145.00 C250.99,145.00 252.00,145.41 252.00,145.91 C252.00,146.42 254.20,148.44 256.88,150.41 C261.95,154.13 263.29,156.99 261.82,160.95 C261.17,162.72 261.30,163.10 262.41,162.67 C263.36,162.31 264.50,163.51 265.82,166.31 C266.91,168.62 268.74,171.58 269.90,172.90 C271.42,174.64 271.71,175.65 270.95,176.56 C269.65,178.12 272.17,184.75 274.38,185.59 C276.38,186.36 278.26,191.75 276.72,192.26 C275.87,192.54 275.89,193.69 276.79,196.69 C278.14,201.19 278.44,213.65 277.21,214.17 C276.78,214.35 275.47,216.82 274.31,219.65 C272.83,223.25 272.51,225.11 273.25,225.85 C273.98,226.58 273.62,226.85 272.05,226.73 C270.81,226.64 268.94,225.46 267.88,224.12 Z" fill="rgb(244,252,249)"/>
</g>
</svg>