<?xml version="1.0" encoding="UTF-8"?>
<svg width="280" height="80" viewBox="0 0 280 80" fill="none" xmlns="http://www.w3.org/2000/svg" role="img" aria-labelledby="logoTitle logoDesc">
  <title id="logoTitle">Swasthya-Mitra</title>
  <desc id="logoDesc">Localized EN logo for Swasthya-Mitra</desc>
  <rect width="580" height="500" rx="12" fill="none"/>
  <g transform="translate(10 4) scale(0.1)">
    <path fill="#30312fff" opacity="1.000000" stroke="none" d="M610.030762,628.000427 C610.035095,622.501526 609.930237,617.499390 610.076904,612.504578 C610.168640,609.379883 608.944153,607.773804 605.947083,606.650879 C588.815369,600.231934 579.435120,584.029297 581.733154,565.241760 C583.816040,548.212219 597.914856,535.129517 615.274475,532.473633 C632.084717,529.901855 651.968689,541.580383 656.741089,558.908997 C662.225586,578.823181 654.052368,597.863647 635.888672,606.073547 C632.185913,607.747131 631.181213,609.801086 631.130432,613.606323 C630.941895,627.756470 631.930481,641.919067 630.527832,656.059937 C627.919373,682.355835 616.261841,703.972290 595.322632,719.716187 C562.816956,744.156677 527.079590,747.604004 490.204956,731.199402 C456.287384,716.110229 437.924622,688.729614 432.530640,652.247131 C429.416046,631.181335 431.058441,610.009216 430.838348,588.887207 C430.780212,583.306030 429.001587,581.032349 423.735443,579.729370 C403.722290,574.778076 389.213593,562.257568 378.342163,545.226501 C368.728638,530.166016 361.001678,514.113953 354.142578,497.634857 C352.671722,494.101044 351.927612,490.608398 354.387054,487.197296 C355.552399,485.580933 354.910156,484.096832 354.316010,482.490387 C344.120697,454.923157 336.946686,426.569702 332.321960,397.559113 C330.585358,386.665497 329.605530,375.678894 331.300903,364.745392 C334.024628,347.180328 345.168365,336.949036 361.543579,331.735657 C364.389557,330.829620 367.345642,330.269257 370.251373,329.551361 C371.899353,329.144226 373.346313,328.521973 374.362000,326.991302 C381.268066,316.583557 392.323517,315.328064 403.265167,314.544098 C407.482147,314.241974 410.485809,317.641632 412.308136,321.475830 C414.638916,326.379669 415.578339,331.558960 415.291260,337.006897 C414.881836,344.775726 410.179230,350.260773 402.404236,350.032288 C393.366577,349.766693 383.968292,349.786926 376.398834,343.342834 C375.429016,342.517181 374.376526,342.377106 373.140503,342.664276 C357.044281,346.404114 344.215485,354.827454 344.878601,375.601929 C345.530792,396.033875 349.888184,415.850037 354.963440,435.512695 C358.454346,449.037262 362.203064,462.510162 367.249023,475.576447 C368.204407,478.050385 369.352386,479.880432 372.203918,480.514099 C375.953369,481.347229 377.109406,484.623291 378.347107,487.786896 C384.488892,503.485992 391.487152,518.772766 401.108215,532.694153 C409.431274,544.737305 419.877533,553.674438 435.071136,555.915710 C452.049744,558.420410 465.407928,552.041138 476.273895,539.613037 C487.826660,526.399292 494.843079,510.472229 502.285126,494.824249 C504.999298,489.117218 506.016785,482.134033 513.703186,480.125061 C515.257324,479.718872 515.499939,477.446838 516.039307,475.881104 C525.926575,447.178589 533.713257,417.950806 537.463074,387.771362 C538.281982,381.179871 538.603882,374.372742 537.347778,367.830597 C534.411072,352.535950 524.078064,345.867523 509.757812,342.573578 C508.286560,342.235168 507.292236,342.931030 506.150299,343.743774 C497.809021,349.680603 488.356903,350.718170 478.575592,349.380768 C473.051208,348.625458 469.877655,344.946198 468.529938,339.559021 C467.270111,334.523132 467.870789,329.583954 469.304474,324.765869 C471.605591,317.032745 476.903839,313.366058 484.854034,314.865051 C493.841400,316.559631 502.906891,318.645660 508.379547,327.298523 C509.567902,329.177399 511.760284,329.282532 513.707764,329.614563 C538.123230,333.777832 552.413818,350.546387 552.328857,375.368195 C552.239075,401.591492 545.884888,426.781433 539.067322,451.848907 C536.229614,462.283051 533.110291,472.653351 529.111633,482.725281 C528.479919,484.316345 528.020508,485.868378 528.958923,487.512146 C531.273743,491.566956 530.314087,495.421234 528.546448,499.434845 C520.138062,518.527283 510.962616,537.204651 498.415771,553.979919 C489.063354,566.484253 476.878571,575.131958 461.766235,579.477539 C454.279785,581.630310 454.260925,581.657227 454.250793,589.239929 C454.228577,605.902771 454.034912,622.568481 454.269531,639.227966 C454.937653,686.668457 492.043732,720.785706 539.427002,717.713623 C573.150940,715.527100 600.963440,692.141663 608.141113,659.847107 C610.437866,649.513550 609.769348,638.972168 610.030762,628.000427 M639.720276,588.193420 C649.966370,574.159180 647.557800,557.401367 634.013977,548.491150 C625.480347,542.877075 614.651428,542.899231 606.291748,548.547974 C596.589294,555.104065 592.065918,565.187256 594.242310,575.407837 C598.787659,596.753357 622.215820,603.677979 639.720276,588.193420 z"/>
    <path fill="#00192b84" opacity="1.000000" stroke="none" d="M568.903870,306.762024 C590.713135,308.714203 610.965271,313.957458 629.131287,325.916443 C653.602417,342.026215 666.287598,365.277435 670.214233,393.710968 C672.052124,407.019012 671.721252,407.088165 658.391479,407.116638 C641.225708,407.153320 624.059387,407.084076 606.894409,407.211609 C603.264648,407.238586 601.673828,406.494629 601.532471,402.266876 C600.936340,384.442291 586.741821,369.064575 568.283752,366.453796 C562.677429,365.660797 560.226318,363.566162 558.679077,357.976440 C553.117371,337.882996 538.425171,326.951111 519.267883,321.300262 C514.166504,319.795471 510.713348,316.589142 506.241821,312.035553 C527.277039,306.140686 547.764343,305.508270 568.903870,306.762024 z"/>
    <path fill="#00192b84" opacity="1.000000" stroke="none" d="M636.599121,504.038574 C631.004272,505.693146 625.640015,504.968903 620.336853,504.976440 C610.845520,504.989899 601.351929,505.219360 591.856445,504.592194 C588.255066,504.354340 585.210693,503.856842 582.426697,501.195312 C579.502380,498.399689 576.252380,499.258331 573.637878,502.104004 C571.200073,504.757416 570.651428,507.658539 573.208679,510.596375 C575.814270,513.589600 579.711548,515.327026 582.345642,512.310669 C586.971802,507.013214 592.671021,508.658661 597.994446,508.503998 C609.646423,508.165436 621.315552,508.449432 632.977051,508.378479 C634.968384,508.366394 636.281006,508.868256 637.648560,510.480774 C641.348083,514.843140 645.275879,515.054810 649.118225,511.016571 C650.828064,509.219635 652.572266,508.677917 654.829834,508.709503 C657.995300,508.753723 661.209656,509.028198 664.318665,508.596436 C670.341003,507.760132 673.614563,510.408295 675.349487,515.937500 C685.349121,547.805847 685.172607,578.558411 665.191345,607.020874 C659.015137,615.818665 650.770935,622.437622 641.526428,628.107056 C638.710266,619.358215 640.520752,614.481689 647.221619,609.654480 C661.908325,599.074280 669.130676,584.447510 667.407349,566.537781 C665.631897,548.087463 655.665833,534.588806 638.559387,526.959900 C624.909180,520.872437 611.352051,521.762207 598.108582,528.551941 C596.254578,529.502502 594.503357,531.050659 592.323853,528.802368 C582.869873,519.049927 570.482056,514.393066 558.270203,509.471039 C552.554810,507.167419 546.827759,504.880188 541.027039,502.806213 C538.069458,501.748749 536.866638,500.305817 538.415588,497.264008 C540.112000,493.932739 539.790405,490.569824 538.684387,487.079620 C537.114624,482.125946 540.122681,478.093628 541.903015,473.892822 C542.569275,472.320831 544.500122,472.629730 545.965637,472.627075 C559.131470,472.603241 572.297485,472.660126 585.462891,472.587494 C587.867065,472.574249 589.432373,473.640381 591.087524,475.212738 C594.239197,478.206818 598.128906,478.140930 600.862671,475.373901 C603.461060,472.743866 603.364929,468.037994 600.659546,465.433411 C597.758667,462.640625 594.009399,462.570953 590.918701,465.813568 C588.902161,467.929108 586.832214,468.939636 583.957031,468.920074 C571.796265,468.837433 559.630554,469.159637 547.480408,468.369812 C546.486328,468.305145 545.464539,468.332642 544.274963,467.008301 C546.227966,458.004456 548.883179,448.799744 551.752625,439.652863 C552.354980,437.732819 553.891846,437.768860 555.432251,438.357300 C584.639404,449.515259 614.829041,458.458557 641.105591,476.228119 C642.752502,477.341858 645.781616,477.976593 644.856506,480.760406 C643.955139,483.472412 641.864990,485.620300 638.699280,485.960358 C636.717468,486.173248 634.706726,486.170685 632.708862,486.172852 C613.876587,486.193085 595.044189,486.153229 576.212280,486.237854 C572.921326,486.252686 570.234863,485.792542 567.706055,483.189636 C564.948669,480.351501 561.405945,480.313812 558.403931,483.354156 C555.605164,486.188599 555.520752,490.788269 558.282043,493.229523 C561.372986,495.962280 564.956421,496.181000 567.603455,493.055359 C570.130310,490.071655 573.020996,489.716339 576.459290,489.724304 C596.791382,489.771515 617.123962,489.666840 637.455505,489.777283 C641.028931,489.796692 644.021790,489.223450 646.193176,486.166138 C648.428833,483.018219 650.745117,482.901245 653.539795,485.706970 C659.024109,491.213043 664.722961,496.512604 669.257996,504.999298 C661.383179,503.927643 654.435730,507.937012 648.177612,501.874603 C644.921997,498.720764 641.163025,499.596558 636.599121,504.038574 z"/>
    <path fill="#00192b84" opacity="1.000000" stroke="none" d="M492.898834,476.807068 C491.299255,479.236542 489.817627,477.815521 488.469910,477.044830 C477.705475,470.889160 467.937378,463.451111 459.507416,454.314972 C458.016724,452.699371 456.775299,451.026947 456.853821,448.614258 C457.298004,434.967834 456.500488,421.301514 457.527527,407.660278 C457.695709,405.426453 458.136932,403.675537 459.922668,401.981384 C463.381775,398.699738 463.268951,394.483734 460.143707,391.411438 C457.356476,388.671417 453.096741,388.661102 450.232513,391.387421 C447.445648,394.040222 447.290894,398.542664 450.488403,401.635925 C452.802490,403.874481 453.319946,406.261383 453.298187,409.216400 C453.223389,419.376770 453.300385,429.538147 453.290405,439.699158 C453.288971,441.157532 453.127472,442.615753 452.435608,444.249725 C443.105133,434.582184 439.816528,422.345886 437.735046,409.646606 C433.374329,383.041534 446.143341,353.775238 458.879761,343.221497 C459.864441,343.193878 460.364868,343.897980 460.803131,344.593170 C468.966553,357.541473 477.312408,361.171722 492.869415,358.381073 C498.274384,357.411499 503.569183,356.141357 508.558899,353.600342 C513.852722,350.904480 517.792419,354.734528 521.704102,357.321503 C525.039185,359.527161 526.711060,363.088165 527.032227,367.079437 C527.201904,369.188568 525.065063,369.531097 523.747925,370.414612 C513.627747,377.202942 506.850586,385.953400 507.326324,398.814575 C507.609344,406.466431 510.624878,413.001801 516.141907,418.319885 C521.860413,423.832184 522.310547,428.587097 517.491455,436.121857 C513.788635,432.589996 510.869537,434.198853 508.149994,437.598846 C506.226349,440.003784 504.503143,439.955872 502.011780,437.658997 C496.828003,432.879883 493.987610,427.779907 494.695618,420.286133 C495.475403,412.031860 494.912933,403.644897 494.822144,395.316956 C494.781403,391.583588 494.938904,388.175934 498.112518,385.362823 C500.447784,383.292816 500.398499,380.186646 499.101715,377.468994 C497.853760,374.853790 495.381439,373.519287 492.546387,373.702148 C489.291107,373.912140 487.074493,375.824310 485.915283,378.964661 C484.909088,381.690399 485.569733,384.115967 487.731964,385.683441 C490.762451,387.880280 490.994568,390.786163 490.975403,394.055420 C490.911926,404.882324 491.040466,415.710846 490.914612,426.536652 C490.871368,430.258514 491.785828,433.188782 494.681976,435.794098 C499.257660,439.910187 503.112427,444.883057 507.920471,448.670471 C513.057190,452.716766 513.456360,456.933350 511.188110,462.553741 C508.636536,468.876282 507.740631,469.651489 500.944214,468.955688 C498.059601,468.660339 496.568054,467.512939 497.296875,464.450378 C498.708771,458.517792 496.880341,453.868439 492.204315,449.946930 C488.900421,447.176086 486.295654,443.558838 482.941345,440.863892 C477.980743,436.878479 476.141022,432.226807 476.502808,425.770233 C477.088989,415.308746 476.702850,404.790039 476.628876,394.296204 C476.611511,391.831177 477.107849,389.949280 479.127899,388.181519 C482.465485,385.260773 482.596100,380.929199 479.926483,378.044739 C477.145020,375.039429 473.153870,374.815033 470.143188,377.494751 C466.679779,380.577301 466.389313,384.431824 469.921143,387.917694 C471.949829,389.919983 472.403870,392.000610 472.390045,394.599426 C472.326324,406.592651 472.524689,418.589996 472.261963,430.577850 C472.176514,434.478058 473.513977,437.205933 476.196777,439.760864 C480.776764,444.122559 485.100342,448.754578 489.703857,453.090210 C492.337097,455.570190 493.478363,458.337097 493.273895,461.950317 C493.001251,466.768250 493.071930,471.605621 492.898834,476.807068 z"/>
    <path fill="#00192b84" opacity="1.000000" stroke="none" d="M556.023926,588.427368 C556.131592,595.538086 556.289490,602.198547 556.147034,608.852478 C556.069885,612.453857 557.256165,615.167297 559.860046,617.663757 C567.785278,625.261780 575.526062,633.051880 583.369690,640.735413 C584.444885,641.788696 585.545227,642.757874 585.928101,645.026489 C578.217590,646.562195 570.604736,647.799866 562.893616,646.761963 C560.093262,646.385132 558.672424,643.173645 556.545349,641.342712 C553.681213,638.877319 551.624695,635.523987 548.285889,633.485840 C546.690063,636.450928 546.930237,637.115662 550.327454,640.237366 C552.222229,641.978455 554.775513,643.176025 555.394653,645.963501 C554.497009,647.634949 553.016785,647.246948 551.777771,647.210144 C541.293579,646.898438 530.890808,645.750732 520.541199,644.068542 C517.337036,643.547729 515.661194,642.174683 515.687439,638.501831 C515.826172,619.028015 515.733704,599.552673 515.734985,580.077820 C515.735046,578.933228 515.622498,577.735413 516.949524,576.204285 C520.862915,578.098328 524.996277,580.005859 529.030579,582.103943 C530.366272,582.798584 530.206787,584.384399 530.211975,585.717529 C530.241394,593.207825 530.202576,600.698975 530.317566,608.187805 C530.354370,610.587402 529.379272,612.120544 527.606934,613.685913 C524.399109,616.519043 524.216309,621.009949 526.801453,623.944824 C528.881226,626.305908 533.764343,626.558044 536.429321,624.441895 C539.366028,622.109985 540.003662,617.076050 537.072754,614.204468 C534.722229,611.901489 534.476074,609.543823 534.538635,606.611389 C534.697327,599.167236 534.591370,591.717529 534.591370,583.546387 C541.540955,584.966980 547.896240,585.827087 554.295349,586.299805 C554.884583,586.343323 555.399475,587.392212 556.023926,588.427368 z"/>
    <path fill="#00192b84" opacity="1.000000" stroke="none" d="M463.105469,606.021606 C463.221069,601.873840 463.686188,598.184265 463.366516,594.564087 C462.987671,590.273865 464.750977,588.298828 468.690399,587.045654 C476.226410,584.648254 482.722656,580.212036 489.142914,575.705322 C490.435974,574.797607 491.409851,573.158813 494.091736,573.719543 C494.091736,580.818237 494.141113,588.040039 494.049896,595.260132 C494.031738,596.697021 492.490356,597.327026 491.623657,598.308289 C488.619843,601.709106 488.570343,605.670105 491.483185,608.543884 C494.278381,611.301575 498.661438,611.419556 501.401794,608.810974 C504.385742,605.970520 504.620087,601.710815 501.313354,598.635620 C499.064301,596.544128 498.619415,594.362366 498.614471,591.579041 C498.603241,585.259094 498.595795,578.921021 498.118774,572.625793 C497.750122,567.760986 500.094910,564.890137 504.074158,562.285645 C508.353607,567.595093 512.575928,572.150330 512.274597,580.035278 C511.556366,598.828430 511.875702,617.664368 511.950653,636.482300 C511.967621,640.732727 510.826904,642.247559 506.394196,640.923462 C493.390381,637.039001 481.075989,631.842529 469.830841,624.073914 C465.019196,620.749939 461.943237,617.163452 463.079590,611.000061 C463.346741,609.551086 463.111633,608.009583 463.105469,606.021606 z"/>
    <path fill="#00192b84" opacity="1.000000" stroke="none" d="M601.034485,620.294617 C601.043945,626.582336 601.078308,632.404358 601.046631,638.226013 C601.036011,640.168152 601.466797,642.505432 598.792786,643.118591 C596.296387,643.691040 593.655762,645.171326 591.262085,642.815918 C581.424927,633.136047 571.598816,623.445190 561.771484,613.755371 C560.517700,612.519165 559.949768,610.970886 559.954407,609.247559 C559.971558,602.927490 560.051086,596.607605 560.065735,590.287537 C560.072388,587.415100 561.532776,586.251282 564.307678,585.856750 C573.419861,584.561035 573.408936,584.486938 577.693481,592.907593 C577.844177,593.203796 577.964417,593.539307 578.187195,593.771729 C582.820984,598.604248 582.427246,602.948181 577.057251,606.965210 C576.191772,607.612671 575.392578,608.643860 575.902710,610.251587 C578.019043,611.040710 579.350403,609.358276 580.270203,608.094788 C583.589050,603.535828 586.685364,604.109741 590.329468,607.724060 C592.065979,609.446350 594.279053,610.849792 596.517334,611.867493 C600.099304,613.496155 601.429016,616.096619 601.034485,620.294617 z"/>
    <path fill="#155a6fd0" opacity="1.000000" stroke="none" d="M510.593109,445.511169 C508.651031,443.447083 509.180847,442.023041 511.044617,440.767273 C512.658875,439.679657 514.259644,439.769043 515.564880,441.098358 C517.884766,443.460907 515.817200,445.589020 515.556213,447.630707 C512.956299,448.462189 512.064819,446.774536 510.593109,445.511169 z"/>
    <path fill="#155a6fd0" opacity="1.000000" stroke="none" d="M499.368439,605.403198 C497.293640,607.698425 495.391602,607.519348 493.630859,605.669800 C492.644562,604.633789 492.454163,603.220154 493.196960,602.006714 C494.141968,600.462952 495.678558,599.821350 497.447449,600.442322 C499.672668,601.223511 500.540924,602.759766 499.368439,605.403198 z"/>
    <path fill="#155a6fd0" opacity="1.000000" stroke="none" d="M576.896362,509.395813 C575.119690,507.454590 574.594299,505.628815 576.499817,503.964386 C577.684570,502.929504 579.202698,502.666656 580.619080,503.690002 C581.963623,504.661407 582.511292,506.047638 581.946594,507.610474 C581.122803,509.890411 579.467651,510.553589 576.896362,509.395813 z"/>
    <path fill="#155a6fd0" opacity="1.000000" stroke="none" d="M594.586060,467.233795 C597.566833,466.864868 599.105530,468.000977 599.170349,470.695251 C599.210571,472.367432 598.293762,473.539551 596.665894,473.979309 C595.235474,474.365814 593.914429,473.866547 593.194153,472.647400 C592.036743,470.688354 592.364807,468.837830 594.586060,467.233795 z"/>
    <path fill="#155a6fd0" opacity="1.000000" stroke="none" d="M646.439514,504.956329 C647.494202,507.489960 646.839783,509.177185 644.635559,509.996185 C643.118713,510.559753 641.729675,510.035797 640.813416,508.614075 C639.914368,507.218994 639.841980,505.669159 641.004517,504.543579 C642.640564,502.959564 644.513306,503.045258 646.439514,504.956329 z"/>
    <path fill="#155a6fd0" opacity="1.000000" stroke="none" d="M452.877441,393.903198 C455.311951,392.223572 457.004364,392.967560 458.127289,394.985046 C458.809937,396.211548 458.539276,397.608978 457.532654,398.681580 C456.492676,399.789734 455.152161,399.972809 453.896027,399.226501 C451.870392,398.022980 451.293915,396.309082 452.877441,393.903198 z"/>
    <path fill="#155a6fd0" opacity="1.000000" stroke="none" d="M499.702515,479.680908 C496.789154,481.081543 496.913208,479.076691 496.927216,477.526794 C496.944214,475.641907 496.524078,473.295502 499.270813,472.864624 C500.790863,472.626251 502.488281,472.154724 504.095612,473.610229 C502.702148,475.551971 501.317963,477.480804 499.702515,479.680908 z"/>
    <path fill="#155a6fd0" opacity="1.000000" stroke="none" d="M474.208282,385.842041 C471.578888,384.856171 471.040009,383.081207 471.774506,380.971710 C472.267426,379.556122 473.625610,379.178894 475.036011,379.391357 C476.716614,379.644501 477.684174,380.769806 477.822235,382.385010 C478.013916,384.627319 476.626007,385.618439 474.208282,385.842041 z"/>
    <path fill="#155a6fd0" opacity="1.000000" stroke="none" d="M560.325439,486.302612 C562.228088,484.326508 564.057434,484.180603 565.674072,485.898895 C566.785645,487.080414 566.673706,488.624390 565.754211,489.969025 C564.929810,491.174744 563.629944,491.616241 562.296143,491.260742 C559.864685,490.612671 559.511841,488.809357 560.325439,486.302612 z"/>
    <path fill="#155a6fd0" opacity="1.000000" stroke="none" d="M492.145416,383.852966 C489.551300,382.631409 489.136292,380.866669 490.266876,378.828888 C491.004913,377.498718 492.428650,377.438782 493.780701,377.786987 C495.229645,378.160156 496.053162,379.200562 496.019867,380.665070 C495.970154,382.851135 494.688263,383.910706 492.145416,383.852966 z"/>
    <path fill="#155a6fd0" opacity="1.000000" stroke="none" d="M529.010193,619.739502 C528.775391,617.125427 529.901917,615.962402 532.039551,615.844055 C533.480591,615.764282 534.600403,616.453369 535.013611,617.890320 C535.460327,619.444092 535.144653,620.899780 533.639954,621.700745 C531.670898,622.748718 530.211853,621.880981 529.010193,619.739502 z"/>
    <path fill="#155a6fd0" opacity="1.000000" stroke="none" d="M633.214355,577.904541 C627.033264,587.753601 615.688782,588.916260 607.845825,580.867798 C606.603210,579.592529 605.558899,577.784424 606.472168,576.390015 C608.653625,573.058960 607.765320,569.941956 606.955200,566.546692 C606.181824,563.305298 607.653076,560.655029 610.445251,558.895020 C612.836426,557.387817 615.348083,556.073242 617.781860,554.631897 C619.375488,553.688110 620.825989,553.707397 622.441833,554.717834 C624.692017,556.125000 627.050903,557.364990 629.403259,558.600403 C632.599365,560.278992 634.645447,562.387817 632.200806,566.083374 C631.252075,567.517639 631.941528,568.592651 632.550476,569.767273 C633.841064,572.256897 633.939087,574.859558 633.214355,577.904541 z"/>
  </g>
  <text x="90" y="50" font-family="'Noto Sans Devanagari', 'Mangal', 'Noto Sans Bengali', 'Noto Sans', sans-serif" font-size="22" font-weight="700" fill="#0F172A">
    Swasthya-Mitra
  </text>
  <text x="90" y="60" font-family="'Noto Sans Devanagari', 'Mangal', 'Noto Sans Bengali', 'Noto Sans', sans-serif" font-size="7" fill="#475569">
    <tspan x="90" dy="0">
      Swasthya-Mitra handles everything from patient queue
    </tspan>
    <tspan x="90" dy="9">
      management to AI wait-time prediction. Your
    </tspan>
    <tspan x="90" dy="9">
      clinic&apos;s digital assistant that never sleeps.
    </tspan>
  </text>
</svg>
